<svg xmlns="http://www.w3.org/2000/svg" width="267" height="277" fill="none" viewBox="0 0 267 277">
  <mask id="a" width="113" height="180" x="0" y="97" maskUnits="userSpaceOnUse" style="mask-type:luminance">
    <path fill="#fff" d="M0 97.853h112.908V277H0V97.853Z"/>
  </mask>
  <g mask="url(#a)">
    <mask id="b" width="226" height="226" x="-37" y="69" maskUnits="userSpaceOnUse" style="mask-type:luminance">
      <path fill="#fff" d="M70.555 294.101-36.407 187.132 81.699 69.02l106.968 106.97L70.555 294.101Z"/>
    </mask>
    <g mask="url(#b)">
      <mask id="c" width="226" height="226" x="-37" y="69" maskUnits="userSpaceOnUse" style="mask-type:luminance">
        <path fill="#fff" d="M70.555 294.101-36.407 187.132 81.699 69.02l106.968 106.97L70.555 294.101Z"/>
      </mask>
      <g mask="url(#c)">
        <mask id="d" width="113" height="177" x="0" y="99" maskUnits="userSpaceOnUse" style="mask-type:luminance">
          <path fill="#fff" d="M48.05 146.886a56.916 56.916 0 0 0-5.48 6.363 56.93 56.93 0 0 0-4.493 7.103 56.402 56.402 0 0 0-3.393 7.692 56.698 56.698 0 0 0-3.246 16.46 57.44 57.44 0 0 0 .224 8.415 57.406 57.406 0 0 0 4.116 16.301 57.436 57.436 0 0 0 8.662 14.419 56.506 56.506 0 0 0 5.822 6.11 57.767 57.767 0 0 0 6.645 5.193 57.033 57.033 0 0 0 7.333 4.163 57.2 57.2 0 0 0 7.862 3.047 57.86 57.86 0 0 0 8.221 1.864c2.782.417 5.581.629 8.398.635l-.012-4.146a52.856 52.856 0 0 1-5.204-.271 50.571 50.571 0 0 1-5.157-.776 53.237 53.237 0 0 1-5.052-1.276 53.86 53.86 0 0 1-4.91-1.764 53.589 53.589 0 0 1-4.71-2.241 53.011 53.011 0 0 1-4.476-2.687 53.858 53.858 0 0 1-4.193-3.111 53.057 53.057 0 0 1-3.863-3.511 53.165 53.165 0 0 1-9.303-12.531 52.143 52.143 0 0 1-2.235-4.711 52.505 52.505 0 0 1-1.764-4.91 51.742 51.742 0 0 1-1.276-5.057 54.446 54.446 0 0 1-.776-5.152 52.98 52.98 0 0 1-.018-10.408 52.56 52.56 0 0 1 2.011-10.197 51.812 51.812 0 0 1 1.747-4.905 52.566 52.566 0 0 1 4.887-9.162 52.716 52.716 0 0 1 3.093-4.181 52.93 52.93 0 0 1 15.983-13.102 55.641 55.641 0 0 1 4.705-2.217 53.583 53.583 0 0 1 4.904-1.74c1.658-.5 3.346-.918 5.052-1.253a53.319 53.319 0 0 1 10.35-1l23.422.047-.012-4.145-23.422-.018a56.407 56.407 0 0 0-11.168 1.053 55.985 55.985 0 0 0-10.738 3.222 56.706 56.706 0 0 0-9.885 5.269 56.729 56.729 0 0 0-8.65 7.116Zm14.72 14.713a35.896 35.896 0 0 0-3.5 4.058 36.383 36.383 0 0 0-5.022 9.42 36.54 36.54 0 0 0-1.922 15.849c.182 1.787.488 3.551.93 5.286a37.023 37.023 0 0 0 1.693 5.099 36.643 36.643 0 0 0 5.516 9.185 36.193 36.193 0 0 0 3.71 3.893 36.563 36.563 0 0 0 13.914 7.904 36.33 36.33 0 0 0 5.234 1.188c1.776.27 3.557.405 5.351.405l-.012-4.145a32.847 32.847 0 0 1-6.304-.636 30.252 30.252 0 0 1-3.075-.776 33.06 33.06 0 0 1-5.863-2.434 32.753 32.753 0 0 1-2.723-1.635 34.774 34.774 0 0 1-2.552-1.894 35.294 35.294 0 0 1-2.352-2.134 31.069 31.069 0 0 1-2.135-2.359 30.65 30.65 0 0 1-1.894-2.546 31.952 31.952 0 0 1-1.635-2.723 31.22 31.22 0 0 1-1.364-2.869 34.05 34.05 0 0 1-1.076-2.988 34.67 34.67 0 0 1-.776-3.081 33.03 33.03 0 0 1-.47-3.134 31.704 31.704 0 0 1-.012-6.34c.1-1.052.253-2.093.458-3.134a32.66 32.66 0 0 1 1.823-6.057c.406-.976.859-1.929 1.353-2.864.5-.935 1.04-1.835 1.623-2.717a32.99 32.99 0 0 1 4.01-4.887 32.204 32.204 0 0 1 4.893-4.004 31.662 31.662 0 0 1 2.717-1.629c.93-.494 1.888-.941 2.864-1.347a32.606 32.606 0 0 1 6.057-1.823 31.933 31.933 0 0 1 6.304-.606l23.452.047-.012-4.145-23.452-.047a36.061 36.061 0 0 0-13.955 2.728 36.143 36.143 0 0 0-6.292 3.358 35.694 35.694 0 0 0-5.504 4.534Zm-7.374-7.368a46.662 46.662 0 0 0-4.487 5.204 47.385 47.385 0 0 0-3.67 5.816 46.146 46.146 0 0 0-2.775 6.292 46.89 46.89 0 0 0-1.823 6.633 46.448 46.448 0 0 0-.641 13.72 46.636 46.636 0 0 0 3.363 13.331 47.215 47.215 0 0 0 3.105 6.163 47.12 47.12 0 0 0 3.981 5.64 46.142 46.142 0 0 0 4.758 4.998 46.208 46.208 0 0 0 5.434 4.252 46.839 46.839 0 0 0 12.432 5.904 46.153 46.153 0 0 0 6.72 1.529c2.276.347 4.57.517 6.87.523l.023-4.116a41.78 41.78 0 0 1-4.117-.312 41.384 41.384 0 0 1-4.063-.7 43.597 43.597 0 0 1-3.981-1.099 41.523 41.523 0 0 1-3.864-1.471 42.298 42.298 0 0 1-7.204-4.022 43.692 43.692 0 0 1-3.287-2.511 44.196 44.196 0 0 1-3.023-2.817 42.756 42.756 0 0 1-5.169-6.439 42.38 42.38 0 0 1-2.099-3.558 44.172 44.172 0 0 1-1.746-3.746 42.817 42.817 0 0 1-2.993-20.223c.129-1.37.329-2.729.587-4.081a42.58 42.58 0 0 1 .982-3.999 41.027 41.027 0 0 1 1.359-3.893 42.905 42.905 0 0 1 3.81-7.286 42.065 42.065 0 0 1 5.146-6.416 42.018 42.018 0 0 1 6.286-5.298c1.13-.782 2.3-1.506 3.5-2.176a42.807 42.807 0 0 1 3.692-1.817 42.116 42.116 0 0 1 7.833-2.535 42.88 42.88 0 0 1 8.174-.982l23.44.053-.017-4.146-23.434-.053a46.777 46.777 0 0 0-9.139.865 46.257 46.257 0 0 0-8.785 2.646 46.134 46.134 0 0 0-8.086 4.317 45.701 45.701 0 0 0-7.075 5.827l-.017-.017Zm-22.07-22.076a77.81 77.81 0 0 0-9.674 11.802 78.511 78.511 0 0 0-3.916 6.557 78.832 78.832 0 0 0-3.258 6.916 78.122 78.122 0 0 0-2.558 7.197 76.876 76.876 0 0 0-1.84 7.422 76.424 76.424 0 0 0-1.107 7.568 77.093 77.093 0 0 0-.358 7.645 77.34 77.34 0 0 0 .394 7.645 78.318 78.318 0 0 0 3.017 14.995 78.626 78.626 0 0 0 2.593 7.216 79.209 79.209 0 0 0 3.293 6.921 78.326 78.326 0 0 0 3.946 6.575 78.993 78.993 0 0 0 4.575 6.151 76.138 76.138 0 0 0 5.151 5.681 77.621 77.621 0 0 0 11.82 9.755 77.748 77.748 0 0 0 13.49 7.245 77.516 77.516 0 0 0 14.643 4.464 77.485 77.485 0 0 0 15.225 1.505l-.03-4.134a74.356 74.356 0 0 1-7.232-.37 73.564 73.564 0 0 1-7.175-1.077 74.675 74.675 0 0 1-7.033-1.775 72.657 72.657 0 0 1-6.821-2.459 72.766 72.766 0 0 1-6.557-3.11 74.165 74.165 0 0 1-6.228-3.735 77.24 77.24 0 0 1-5.828-4.328 73.71 73.71 0 0 1-5.374-4.881 74.02 74.02 0 0 1-4.881-5.374 74.842 74.842 0 0 1-8.069-12.056 74.896 74.896 0 0 1-3.11-6.557 73.591 73.591 0 0 1-2.453-6.827 73.636 73.636 0 0 1-1.776-7.033 75.292 75.292 0 0 1-1.082-7.169 74.313 74.313 0 0 1-.37-7.239c0-2.417.112-4.828.341-7.233a73.893 73.893 0 0 1 2.8-14.19 73.338 73.338 0 0 1 2.422-6.821 74.326 74.326 0 0 1 6.798-12.749 73.457 73.457 0 0 1 9.162-11.168 72.24 72.24 0 0 1 5.357-4.857 72.91 72.91 0 0 1 12.02-8.015 74.715 74.715 0 0 1 6.54-3.088 74.156 74.156 0 0 1 6.82-2.422 72.085 72.085 0 0 1 7.022-1.747 74.256 74.256 0 0 1 7.169-1.053 74.327 74.327 0 0 1 7.233-.341l23.417.036-.012-4.146-23.4-.047a76.787 76.787 0 0 0-15.218 1.435 76.892 76.892 0 0 0-14.625 4.398 76.716 76.716 0 0 0-13.467 7.186 77.135 77.135 0 0 0-11.785 9.703l-.011-.017Zm36.783 36.783a26.049 26.049 0 0 0-2.5 2.899 25.456 25.456 0 0 0-2.046 3.24A26.243 26.243 0 0 0 63 182.275a25.872 25.872 0 0 0-.458 3.805 26.916 26.916 0 0 0 .1 3.834c.129 1.276.352 2.541.664 3.781a26.5 26.5 0 0 0 1.211 3.646 25.692 25.692 0 0 0 1.735 3.429 26.058 26.058 0 0 0 4.864 5.927 26.056 26.056 0 0 0 3.028 2.364 25.95 25.95 0 0 0 3.34 1.9 26.397 26.397 0 0 0 7.327 2.24c1.265.188 2.54.288 3.823.288v-4.145a22.206 22.206 0 0 1-4.281-.43 21.859 21.859 0 0 1-4.117-1.258 21.79 21.79 0 0 1-3.793-2.035c-1.2-.8-2.31-1.711-3.328-2.734a21.524 21.524 0 0 1-2.735-3.329 21.567 21.567 0 0 1-2.034-3.793 22.336 22.336 0 0 1-1.259-4.116 22.233 22.233 0 0 1-.429-4.275c0-1.441.135-2.87.412-4.281a22.218 22.218 0 0 1 1.24-4.111 22.075 22.075 0 0 1 2.017-3.787 21.987 21.987 0 0 1 2.723-3.317 21.394 21.394 0 0 1 3.317-2.717 21.51 21.51 0 0 1 3.787-2.017c1.329-.552 2.7-.964 4.11-1.24a21.666 21.666 0 0 1 4.276-.412l23.469.076-.023-4.145-23.458-.047a25.496 25.496 0 0 0-9.968 1.946 25.469 25.469 0 0 0-8.438 5.634l-.012-.018Zm-29.427-29.421a67.037 67.037 0 0 0-11.79 15.907 66.949 66.949 0 0 0-4.017 9.092 66.728 66.728 0 0 0-2.634 9.579 67.976 67.976 0 0 0-1.2 9.874 66.839 66.839 0 0 0 .265 9.944c.33 3.311.905 6.58 1.723 9.809a67.023 67.023 0 0 0 3.14 9.456 67.397 67.397 0 0 0 4.493 8.891 67.186 67.186 0 0 0 5.745 8.151 68.04 68.04 0 0 0 6.875 7.215 67.666 67.666 0 0 0 16.524 11.056 67.81 67.81 0 0 0 19.006 5.798c3.293.488 6.598.741 9.927.747l-.012-4.152a63.82 63.82 0 0 1-12.302-1.341 64.394 64.394 0 0 1-11.814-3.698 63.49 63.49 0 0 1-5.587-2.7 64.042 64.042 0 0 1-5.299-3.222 63.996 63.996 0 0 1-13.69-12.532 64.857 64.857 0 0 1-3.68-4.992 62.351 62.351 0 0 1-3.176-5.328 63.895 63.895 0 0 1-4.734-11.45 63.68 63.68 0 0 1-1.506-6.01 63.346 63.346 0 0 1-.917-6.127 64.038 64.038 0 0 1-.318-6.187 63.94 63.94 0 0 1 1.182-12.308c.4-2.029.894-4.028 1.482-6.004a63.473 63.473 0 0 1 4.687-11.432 61.835 61.835 0 0 1 3.158-5.31 61.967 61.967 0 0 1 3.658-4.981 63.92 63.92 0 0 1 4.128-4.599 63.78 63.78 0 0 1 4.563-4.169 65.078 65.078 0 0 1 4.946-3.705 63.606 63.606 0 0 1 5.287-3.199 61.997 61.997 0 0 1 5.574-2.675 63.488 63.488 0 0 1 11.803-3.652 62.896 62.896 0 0 1 6.116-.941 63.69 63.69 0 0 1 6.18-.347l23.411.053-.018-4.146-23.405-.053a67.103 67.103 0 0 0-13.196 1.247 66.708 66.708 0 0 0-12.678 3.816A66.591 66.591 0 0 0 40.7 139.529l-.018-.012ZM.23 187.244a88.8 88.8 0 0 0 .447 8.662c.288 2.882.717 5.74 1.287 8.58a90.342 90.342 0 0 0 2.123 8.421 89.394 89.394 0 0 0 6.663 16.019 90.11 90.11 0 0 0 4.475 7.445 89.032 89.032 0 0 0 11.02 13.414 87.815 87.815 0 0 0 6.434 5.839 89.558 89.558 0 0 0 6.98 5.181 87.493 87.493 0 0 0 7.445 4.469 90.282 90.282 0 0 0 7.85 3.728 87.602 87.602 0 0 0 8.169 2.935c2.77.847 5.58 1.558 8.415 2.129 2.84.57 5.704.999 8.586 1.287 2.881.289 5.768.436 8.662.441l-.012-4.145a84.04 84.04 0 0 1-8.256-.424 81.495 81.495 0 0 1-8.18-1.229 84.295 84.295 0 0 1-23.287-8.374 83.416 83.416 0 0 1-7.098-4.263 83.97 83.97 0 0 1-12.785-10.497 84.678 84.678 0 0 1-5.563-6.139 86.38 86.38 0 0 1-4.94-6.646 85.893 85.893 0 0 1-4.263-7.097 83.513 83.513 0 0 1-3.546-7.481 83.462 83.462 0 0 1-2.8-7.786 85.576 85.576 0 0 1-2.028-8.021 85.459 85.459 0 0 1-1.23-8.18A84.185 84.185 0 0 1 4.765 179a83.044 83.044 0 0 1 1.2-8.168 83.047 83.047 0 0 1 4.757-15.79 84.645 84.645 0 0 1 3.516-7.468 85.293 85.293 0 0 1 4.234-7.081 84.405 84.405 0 0 1 4.91-6.627 83.918 83.918 0 0 1 5.54-6.11 83.826 83.826 0 0 1 12.737-10.45 82.916 82.916 0 0 1 7.087-4.234 82.956 82.956 0 0 1 7.462-3.516 83.039 83.039 0 0 1 7.774-2.77 85.233 85.233 0 0 1 8.016-1.994 84.868 84.868 0 0 1 8.174-1.193 84.11 84.11 0 0 1 8.25-.389l23.387.048-.017-4.146-23.382-.047a88.66 88.66 0 0 0-8.656.405c-2.881.283-5.74.7-8.58 1.259a87.778 87.778 0 0 0-16.565 4.992 87.076 87.076 0 0 0-7.827 3.694 87.523 87.523 0 0 0-14.384 9.591 89.553 89.553 0 0 0-6.416 5.81 88.163 88.163 0 0 0-5.81 6.416 87.172 87.172 0 0 0-5.146 6.95 87.93 87.93 0 0 0-4.446 7.428 89.648 89.648 0 0 0-3.692 7.833 88.408 88.408 0 0 0-2.906 8.162 88.11 88.11 0 0 0-3.34 16.977 88.793 88.793 0 0 0-.411 8.662Z"/>
        </mask>
        <g mask="url(#d)">
          <path fill="#000" d="m-.14 98.823.364 176.971 112.149.235-.365-176.97-112.149-.236Z"/>
        </g>
      </g>
    </g>
  </g>
  <mask id="e" width="96" height="71" x="171" y="97" maskUnits="userSpaceOnUse" style="mask-type:luminance">
    <path fill="#fff" d="M171.62 97.853h94.843v69.25H171.62v-69.25Z"/>
  </mask>
  <g mask="url(#e)">
    <mask id="f" width="134" height="134" x="138" y="67" maskUnits="userSpaceOnUse" style="mask-type:luminance">
      <path fill="#fff" d="m207.161 200.616-68.345-68.344 64.628-64.622 68.339 68.338-64.622 64.628Z"/>
    </mask>
    <g mask="url(#f)">
      <mask id="g" width="134" height="134" x="138" y="67" maskUnits="userSpaceOnUse" style="mask-type:luminance">
        <path fill="#fff" d="m207.16 200.616-68.345-68.344 64.628-64.622 68.339 68.338-64.622 64.628Z"/>
      </mask>
      <g mask="url(#g)">
        <mask id="h" width="94" height="67" x="172" y="99" maskUnits="userSpaceOnUse" style="mask-type:luminance">
          <path fill="#fff" d="m222.197 140.605-50.049.053.005 4.158 50.044-.053v-4.158Zm-50.055-37.395 35.124-.035.006-4.157-35.13.04v4.152Zm.017 10.386 59.336-.059.005-4.158-59.341.059v4.158Zm0 47.868v4.151l67.116-.07.017-4.14-67.133.059Zm-.017-6.234 80.388-.088v-4.152l-80.377.071-.011 4.169Zm-.012-31.202 77.206-.1.006-4.146-77.194.076-.018 4.17Zm.023 10.385 93.796-.1.006-4.152-93.802.094v4.158Z"/>
        </mask>
        <g mask="url(#h)">
          <path fill="#000" d="m172.129 99.017-.07 66.692 93.895-.094.071-66.692-93.896.094Z"/>
        </g>
      </g>
    </g>
  </g>
  <mask id="i" width="91" height="277" x="87" y="0" maskUnits="userSpaceOnUse" style="mask-type:luminance">
    <path fill="#fff" d="M87.317 0h90.326v277H87.317V0Z"/>
  </mask>
  <g mask="url(#i)">
    <mask id="j" width="295" height="296" x="-39" y="-1" maskUnits="userSpaceOnUse" style="mask-type:luminance">
      <path fill="#fff" d="M106.647 294.101-38.951 148.503 109.616-.064l145.598 145.597-148.567 148.568Z"/>
    </mask>
    <g mask="url(#j)">
      <mask id="k" width="295" height="296" x="-39" y="-1" maskUnits="userSpaceOnUse" style="mask-type:luminance">
        <path fill="#fff" d="M106.647 294.101-38.951 148.503 109.616-.064l145.598 145.597-148.567 148.568Z"/>
      </mask>
      <g mask="url(#k)">
        <mask id="l" width="89" height="276" x="88" y="0" maskUnits="userSpaceOnUse" style="mask-type:luminance">
          <path fill="#fff" d="m88.18 219.758.006 4.14a35.988 35.988 0 0 0 7.098-.694 34.85 34.85 0 0 0 3.457-.864 33.876 33.876 0 0 0 3.358-1.2 34.312 34.312 0 0 0 3.229-1.523 36.635 36.635 0 0 0 3.058-1.829c.988-.658 1.94-1.37 2.863-2.123a36.007 36.007 0 0 0 5.034-5.034 37.095 37.095 0 0 0 2.123-2.863 36.635 36.635 0 0 0 1.829-3.058 34.312 34.312 0 0 0 1.523-3.229 33.865 33.865 0 0 0 1.2-3.358c.347-1.135.635-2.293.864-3.457a36.028 36.028 0 0 0 .694-7.098l-.3-173.031-4.152-4.146.312 177.171c0 1.052-.053 2.105-.153 3.158a33.21 33.21 0 0 1-.464 3.128 30.797 30.797 0 0 1-.765 3.07 31.428 31.428 0 0 1-1.064 2.975c-.4.977-.853 1.929-1.347 2.858a30.723 30.723 0 0 1-1.623 2.711 30.17 30.17 0 0 1-1.882 2.535 33.435 33.435 0 0 1-2.117 2.346 32.005 32.005 0 0 1-2.346 2.117 30.17 30.17 0 0 1-2.535 1.882 30.723 30.723 0 0 1-2.711 1.623c-.929.494-1.881.947-2.858 1.347a31.36 31.36 0 0 1-2.975 1.064 32.869 32.869 0 0 1-6.198 1.229c-1.053.1-2.106.153-3.158.153Zm21.817-32.202c0 1.441-.141 2.858-.418 4.269a22.143 22.143 0 0 1-1.24 4.099 22.184 22.184 0 0 1-2.018 3.781 22.188 22.188 0 0 1-2.716 3.311 22.245 22.245 0 0 1-3.311 2.717 21.8 21.8 0 0 1-3.781 2.017 22.083 22.083 0 0 1-4.1 1.241 22.198 22.198 0 0 1-4.269.417l.006 4.14a26.182 26.182 0 0 0 7.55-1.111 26.402 26.402 0 0 0 2.406-.859 26.35 26.35 0 0 0 2.305-1.094 27.256 27.256 0 0 0 2.188-1.305 28.717 28.717 0 0 0 2.047-1.517 25.136 25.136 0 0 0 1.887-1.717 23.48 23.48 0 0 0 1.711-1.888 25.72 25.72 0 0 0 1.518-2.047 25.899 25.899 0 0 0 3.257-6.897 27.29 27.29 0 0 0 .624-2.47 26.57 26.57 0 0 0 .494-5.075l-.312-183.422-4.14-4.14.312 187.55Zm8.315 30.138a41.848 41.848 0 0 1-6.445 5.304 42.103 42.103 0 0 1-7.357 3.935 42.624 42.624 0 0 1-7.997 2.405 42.494 42.494 0 0 1-8.316.788l.006 4.14a46.9 46.9 0 0 0 13.573-1.988 48.322 48.322 0 0 0 4.316-1.541 44.554 44.554 0 0 0 4.146-1.958 45.097 45.097 0 0 0 3.934-2.352 47.762 47.762 0 0 0 3.681-2.723 46.662 46.662 0 0 0 3.393-3.081 46.33 46.33 0 0 0 8.157-11.009 48.44 48.44 0 0 0 1.958-4.14 47.215 47.215 0 0 0 1.535-4.322 48.133 48.133 0 0 0 1.111-4.446c.294-1.505.518-3.017.665-4.54.147-1.523.217-3.052.217-4.587l-.288-162.657-4.151-4.152.294 166.809c.011 2.8-.253 5.569-.788 8.316a42.072 42.072 0 0 1-2.411 7.997 41.914 41.914 0 0 1-3.929 7.363 42.15 42.15 0 0 1-5.304 6.439Zm29.368 29.374a82.45 82.45 0 0 1-12.708 10.461 82.71 82.71 0 0 1-14.519 7.757 82.864 82.864 0 0 1-15.772 4.745 83.134 83.134 0 0 1-16.413 1.559l.006 4.134a87.685 87.685 0 0 0 17.207-1.664 88.033 88.033 0 0 0 16.542-4.987 90.684 90.684 0 0 0 7.821-3.687 88.631 88.631 0 0 0 7.421-4.44 87.497 87.497 0 0 0 13.349-10.95 87.725 87.725 0 0 0 15.39-20.77 90.544 90.544 0 0 0 3.687-7.821 88.033 88.033 0 0 0 4.987-16.542 87.675 87.675 0 0 0 1.664-17.207l-.206-121.2-4.152-4.145.224 125.339a83.09 83.09 0 0 1-1.559 16.413 83.164 83.164 0 0 1-12.502 30.297 83.066 83.066 0 0 1-10.467 12.708Zm-7.357-7.357a72.41 72.41 0 0 1-11.132 9.174 72.454 72.454 0 0 1-12.72 6.81 73.173 73.173 0 0 1-13.825 4.169 72.79 72.79 0 0 1-14.378 1.37v4.14a78.004 78.004 0 0 0 15.19-1.464 78.377 78.377 0 0 0 14.595-4.405 75.992 75.992 0 0 0 6.904-3.258 75.928 75.928 0 0 0 6.551-3.916 76.914 76.914 0 0 0 6.128-4.54 76.546 76.546 0 0 0 5.651-5.122 76.344 76.344 0 0 0 5.122-5.651 76.914 76.914 0 0 0 4.54-6.128 75.928 75.928 0 0 0 3.916-6.551 78.327 78.327 0 0 0 3.258-6.898 78.377 78.377 0 0 0 4.405-14.601 77.986 77.986 0 0 0 1.464-15.19l-.229-131.56-4.158-4.164.247 135.724a72.882 72.882 0 0 1-5.534 28.209 72.842 72.842 0 0 1-15.983 23.864l-.012-.012Zm-7.357-7.357a62.102 62.102 0 0 1-9.579 7.88 62.2 62.2 0 0 1-10.944 5.84 62.122 62.122 0 0 1-11.89 3.569 62.346 62.346 0 0 1-12.367 1.165l.053 4.187a67 67 0 0 0 6.61-.312 68.346 68.346 0 0 0 6.55-.958c2.17-.43 4.311-.965 6.422-1.6a68.174 68.174 0 0 0 6.233-2.223 66.129 66.129 0 0 0 5.987-2.823 66.529 66.529 0 0 0 5.675-3.393 67.181 67.181 0 0 0 10.214-8.374 67.181 67.181 0 0 0 8.374-10.214 66.79 66.79 0 0 0 3.393-5.675 66.11 66.11 0 0 0 2.823-5.986 68.832 68.832 0 0 0 2.223-6.228 68.8 68.8 0 0 0 1.599-6.428c.424-2.164.747-4.351.959-6.551.212-2.199.318-4.404.312-6.609l-.241-141.929-4.152-4.151.253 146.097a62.752 62.752 0 0 1-1.176 12.355 62.635 62.635 0 0 1-9.421 22.817 62.455 62.455 0 0 1-7.88 9.574l-.03-.03Zm-44.75 8.133.005 4.146c1.87 0 3.734-.088 5.598-.27a57.013 57.013 0 0 0 5.54-.824 55.699 55.699 0 0 0 5.428-1.358 55.476 55.476 0 0 0 5.269-1.882 55.86 55.86 0 0 0 5.063-2.387 57.35 57.35 0 0 0 9.291-6.204 58.254 58.254 0 0 0 4.146-3.758 55.672 55.672 0 0 0 3.752-4.146 56.445 56.445 0 0 0 6.204-9.291 57.488 57.488 0 0 0 2.393-5.058 57.722 57.722 0 0 0 1.882-5.269 57.432 57.432 0 0 0 1.359-5.433c.358-1.835.635-3.682.817-5.54.182-1.858.27-3.722.27-5.592l-.264-152.285-4.152-4.151.288 156.412a50.91 50.91 0 0 1-.247 5.193 53.977 53.977 0 0 1-.758 5.139 53.14 53.14 0 0 1-1.253 5.04 56.037 56.037 0 0 1-1.746 4.893 53.676 53.676 0 0 1-4.881 9.15 53.51 53.51 0 0 1-6.575 8.015 53.83 53.83 0 0 1-3.846 3.482 53.754 53.754 0 0 1-4.169 3.093 53.676 53.676 0 0 1-9.15 4.881 56.037 56.037 0 0 1-4.893 1.746c-1.658.5-3.34.918-5.04 1.253-1.7.341-3.416.588-5.14.758a50.903 50.903 0 0 1-5.192.247Z"/>
        </mask>
        <g mask="url(#l)">
          <path fill="#000" d="m132.249 319.834 181.963-181.963-181.963-181.97-181.97 181.97 181.97 181.963Z"/>
        </g>
      </g>
    </g>
  </g>
</svg>
