<svg aria-hidden="true" style="position:absolute;width:0;height:0;overflow:hidden"
  xmlns="http://www.w3.org/2000/svg">
  <defs>
    <symbol id="renault" width="146" height="191" viewBox="0 0 146 191"
      xmlns="http://www.w3.org/2000/svg">
      <path id="Vector" fill-rule="evenodd" clip-rule="evenodd"
        d="M116.893 95.5L65.5168 191H51.4439L0.0668945 95.5L51.2207 0H65.74L14.5862 95.5L58.3685 177.453L102.15 95.5L76.6854 47.7511L84.0569 34.2016L116.893 95.5ZM95.003 0H80.2601L29.3299 95.5L62.1665 156.798L69.3143 143.249L43.8492 95.5L87.6312 13.3253L131.413 95.5L80.2593 191H95.003L145.933 95.5L95.003 0Z"
        fill="black" />
    </symbol>

    <symbol id="audi" width="235" height="145" viewBox="0 0 235 145"
      xmlns="http://www.w3.org/2000/svg">
      <path id="Vector" fill-rule="evenodd" clip-rule="evenodd"
        d="M198.01 143.974V112.854H185.134V143.974H198.01ZM129.846 131.052V113.325H117.367V126.876C117.367 130.815 117.209 131.919 116.973 132.944C116.103 135.781 113.102 137.038 110.022 137.038C105.758 137.038 103.783 135.385 102.993 132.785C102.756 131.921 102.677 130.975 102.598 130.029C102.519 129.005 102.598 127.901 102.598 126.721V113.326H89.9611V131.132C89.9611 135.152 91.3049 138.146 93.5152 140.193C97.3059 143.897 103.704 145 109.628 145C116.815 145 122.344 143.976 126.292 140.116C128.348 138.144 129.846 135.545 129.846 131.052ZM68.5562 128.846C67.9306 128.738 67.2965 128.686 66.6615 128.69H52.4451C51.7337 128.69 50.9435 128.769 50.549 128.846C50.7857 128.609 51.2604 128.138 51.7337 127.507L58.1306 116.949C58.9997 115.532 59.3942 114.586 59.552 114.193C59.7097 114.586 60.1042 115.532 60.9733 117.03L67.5293 127.667C67.8462 128.138 68.3195 128.609 68.5562 128.846ZM92.4093 143.974L63.9752 101.431H48.0218L52.2071 106.394C52.286 106.473 52.4451 106.55 52.6015 106.632C52.4437 106.71 52.286 106.788 52.2071 106.866L27.4072 143.974H41.7814L45.6524 137.592C45.8102 137.277 45.8891 136.961 45.8891 136.805C46.0469 136.805 46.4427 136.961 46.8371 136.961H72.5061C72.9006 136.961 73.2161 136.882 73.3739 136.805C73.3594 137.027 73.4146 137.247 73.5317 137.436L77.5605 143.974H92.4093ZM181.66 127.982C181.66 124.514 180.238 120.495 175.816 114.901L165.152 101.43H150.303L158.754 110.884C160.177 112.46 161.992 113.877 161.992 113.877C159.94 112.694 157.334 112.223 155.28 112.223C150.383 112.223 145.405 113.247 140.985 115.691C136.245 118.288 133.085 122.623 133.085 128.375C133.085 132.786 135.06 136.176 137.587 138.775C143.275 144.446 153.619 144.999 157.411 144.999C163.018 144.999 171.786 143.738 176.764 139.247C179.687 136.568 181.66 132.866 181.66 127.982ZM169.339 128.375C169.339 131.606 167.205 134.047 164.52 135.386C162.308 136.569 159.701 136.884 157.411 136.884C155.122 136.884 152.436 136.41 150.224 135.307C147.539 133.968 145.484 131.368 145.484 128.531C145.484 125.145 148.09 122.464 151.172 121.125C153.068 120.26 155.359 119.944 157.173 119.944C158.913 119.944 161.44 120.179 163.415 120.969C166.971 122.464 169.339 125.301 169.339 128.375ZM193.919 5.86961e-05C184.672 -0.0148339 175.692 3.09729 168.445 8.82855C161.199 3.09692 152.22 -0.0152554 142.972 5.86961e-05C133.725 -0.0142161 124.745 3.09786 117.499 8.82855C110.254 3.09664 101.274 -0.0155861 92.0269 5.86961e-05C82.7797 -0.0142161 73.8006 3.09786 66.5545 8.82855C59.3085 3.09767 50.3293 -0.0144268 41.0821 5.86961e-05C18.3896 5.86961e-05 0 18.3426 0 40.9801C0 63.6149 18.3883 81.9601 41.0821 81.9601C50.3293 81.9743 59.3084 78.8622 66.5545 73.1316C73.8005 78.8625 82.7797 81.9746 92.0269 81.9601C101.274 81.9755 110.254 78.8633 117.499 73.1316C124.745 78.8623 133.725 81.9744 142.972 81.9601C152.22 81.9753 161.199 78.8631 168.445 73.1316C175.692 78.8631 184.671 81.9753 193.919 81.9601C216.612 81.9601 235 63.6162 235 40.9801C235 18.344 216.612 5.86961e-05 193.919 5.86961e-05ZM59.8327 66.4372C54.5979 70.2466 48.0579 72.5714 41.0821 72.5714C23.5764 72.5714 9.41075 58.4423 9.41075 40.9801C9.41075 23.5178 23.5764 9.38742 41.0821 9.38742C48.0579 9.38742 54.5939 11.7136 59.8327 15.5243C54.0607 22.7579 50.9268 31.7348 50.9461 40.9801C50.9505 50.2218 54.0817 59.1916 59.8327 66.4372ZM66.5559 59.7508C62.5186 54.3223 60.3451 47.7393 60.3582 40.9801C60.3412 34.2203 62.5152 27.6361 66.5559 22.2093C70.5958 27.6365 72.7696 34.2204 72.7535 40.9801C72.7662 47.7392 70.5927 54.3221 66.5559 59.7508ZM110.779 66.4372C105.34 70.4314 98.7594 72.5784 92.0055 72.5621C85.2657 72.5757 78.6999 70.4286 73.2763 66.4372C79.0279 59.1924 82.1592 50.2228 82.1629 40.9814C82.1822 31.7361 79.0484 22.7592 73.2763 15.5256C78.6993 11.5331 85.2654 9.38538 92.0055 9.39943C99.0322 9.39943 105.524 11.6669 110.779 15.5256C105.007 22.7592 101.873 31.7361 101.892 40.9814C101.896 50.2228 105.027 59.1923 110.779 66.4372ZM117.499 59.7508C113.462 54.3223 111.289 47.7393 111.302 40.9801C111.285 34.2204 113.459 27.6364 117.499 22.2093C121.54 27.636 123.715 34.2202 123.698 40.9801C123.711 47.7394 121.537 54.3225 117.499 59.7508ZM161.724 66.4372C156.469 70.2972 149.977 72.5621 142.952 72.5621C135.926 72.5621 129.476 70.2932 124.221 66.4372C129.973 59.1927 133.105 50.223 133.108 40.9814C133.127 31.7361 129.993 22.7592 124.221 15.5256C129.476 11.6682 135.926 9.39943 142.952 9.39943C149.977 9.39943 156.469 11.6669 161.724 15.5256C155.952 22.7596 152.819 31.7362 152.837 40.9814C152.842 50.2227 155.973 59.1919 161.724 66.4372ZM168.447 59.7508C164.41 54.3223 162.236 47.7393 162.249 40.9801C162.232 34.2202 164.406 27.6358 168.447 22.2093C172.487 27.6365 174.661 34.2204 174.644 40.9801C174.657 47.7391 172.483 54.3218 168.447 59.7508ZM193.919 72.5714C186.941 72.5714 180.402 70.2466 175.169 66.4372C180.92 59.1921 184.051 50.2227 184.055 40.9814C184.074 31.7362 180.94 22.7596 175.169 15.5256C180.407 11.7163 186.942 9.38876 193.919 9.38876C211.422 9.38876 225.591 23.5192 225.591 40.9814C225.591 58.441 211.422 72.5714 193.919 72.5714Z"
        fill="black" />
    </symbol>

    <symbol id="hyundai" xmlns="http://www.w3.org/2000/svg" width="252" height="152"
      viewBox="0 0 252 152">
      <path fill="#141212"
        d="M194.12 14.959c12.662 6.928 26.992 19.111 25.498 35.353-1.737 15.053-15.769 25.56-28.306 31.892-36.611 17.5-88.025 18.035-125.825 2.745-12.773-5.316-27.11-14.455-32.483-28.188-4.114-11.286.897-23.045 9.32-30.87C59.94 9.884 82.396 4.395 105.504 1.226c25.081-3.044 51.476-.355 73.931 7.346 5.018 1.855 9.966 3.885 14.685 6.387Zm41.51 100.694V152h-7.902v-10.452h-18.027V152h-7.902v-28.501c0-5.038 2.036-7.853 7.902-7.853h25.929v.007Z" />
      <path fill="#fff"
        d="M227.728 122.325h-14.837c-2.495.146-3.183.764-3.183 3.794v8.333h18.027l-.007-12.127Z" />
      <path fill="#141212"
        d="M193.897 123.499v19.668c0 6.261-3.517 8.833-7.902 8.833h-24.922v-36.347h24.922c6.734-.007 7.902 4.267 7.902 7.846Z" />
      <path fill="#fff"
        d="M185.904 125.682c0-1.988-1.209-3.364-3.335-3.364h-13.587v22.718h13.587c3.099-.159 3.335-2.015 3.335-3.488v-15.866Z" />
      <path fill="#141212"
        d="M0 115.646h7.902v14.323h17.68v-14.323h7.902v36.347h-7.902v-14.838H7.902v14.838H0v-36.347Zm47.029 0 9.903 14.852 9.785-14.852h9.598L60.88 138.879v13.114h-7.902v-13.114L37.43 115.646h9.598Zm73.639 0h25.464c3.627 0 7.144.507 7.04 7.853V152h-7.902v-25.888c0-3.134-.375-3.794-2.829-3.794H128.57V152h-7.902v-36.354Zm122.864.007h7.902V152h-7.902v-36.347Zm-163.27 36.34h25.464c5.066 0 7.144-1.466 7.04-8.771v-27.576h-7.902v25.943c0 3.114-.375 3.489-2.835 3.489H88.157v-29.432h-7.902l.007 36.347Z" />
      <path fill="#fff"
        d="M145.332 59.034c1.438 7.401-2.446 13.552-5.671 19.529-3.586 5.552-9.493 10.327-16.603 9.618a168.78 168.78 0 0 1-45.98-7.047 2.87 2.87 0 0 1-1.674-1.195c-.3-.834.125-1.613.722-2.148 13.198-10.688 28.904-15.644 44.43-20.842 5.789-1.675 11.947-3.468 18.452-2.627 2.682.354 5.372 2.203 6.324 4.712Zm54.402-31.65c7.402 6.089 14.094 14.394 11.822 24.422-3.705 14.81-19.828 22.698-32.664 27.709-6.985 2.328-14.032 4.719-21.676 5.434-.48-.055-1.258.063-1.376-.653l.18-.834c10.863-12.245 19.105-25.978 26.333-39.891 3.343-6.269 6.449-12.718 9.313-19.05a3.168 3.168 0 0 1 1.313-.896c2.697.236 4.608 2.321 6.755 3.76ZM95.53 11.617l-.243.896C79.58 30.366 69.253 51.09 59.46 71.69c-1.911 1.793-3.767-.597-5.497-1.369-8.715-5.733-16.596-14.99-14.323-25.978C43.282 30.012 58.03 22.36 70.337 17.17a115.067 115.067 0 0 1 22.872-6.213c.827.007 1.904-.111 2.321.66Zm77.927 2.87c.897.473 1.974.653 2.509 1.55.48 1.015-.479 1.675-1.015 2.328-12.363 9.674-26.513 15.046-40.968 19.765-7.346 1.786-14.754 5.018-22.934 3.225a7.626 7.626 0 0 1-4.719-3.586c-2.029-5.616.716-11.467 3.107-16.36 3.169-6.15 8.777-13.378 16.54-13.496 16.728-.111 32.497 2.39 47.48 6.574Z" />
    </symbol>

    <symbol id="nissan" xmlns="http://www.w3.org/2000/svg" width="280" height="250"
      viewBox="0 0 280 250">
      <path fill="#141212"
        d="M193.684 128.52c3.013-7.04 5.868-13.92 5.868-14.08.158-.32.475-.64.951-.64h2.221c.475 0 .793.32.951.64.793 1.92 3.172 8 5.709 14.08h-15.7Zm19.824-17.28c-2.855-6.72-1.745-5.92-8.247-6.24h-7.612c-6.027.16-5.075-.32-7.137 4 0 0-10.309 23.84-14.749 33.6l-.159.48c-.793 1.6-.158 1.76 1.11 1.76h9.357c.635 0 .952-.32 1.111-.64 0 0 1.268-3.04 3.013-7.2h22.678c.952 2.4 2.062 4.8 3.014 7.2.158.48.634.8 1.11.8h9.674c1.427 0 1.744.16 1.269-1.12-1.745-4.16-12.846-28.8-14.432-32.64ZM68.078 105h-9.515c-.793 0-.951.32-.951.96v37.6c0 .96.158 1.28 1.269 1.28h9.04c.95 0 1.268-.16 1.268-1.28v-37.44c-.158-.8-.317-1.12-1.11-1.12Zm-21.25 0h-7.771c-.952 0-1.27.32-1.27 1.28v29.76s-15.541-24.48-17.603-27.68c-2.379-3.52-3.172-3.36-9.991-3.36H1.312c-1.11 0-1.269.32-1.269 1.28v37.44c0 .96.317 1.28 1.269 1.28h7.77c1.11 0 1.27-.16 1.27-1.28v-29.44s12.845 20.32 17.127 27.2C29.7 145 30.017 145 36.361 145h10.467c.951 0 1.268-.16 1.268-1.28v-37.44c0-.96-.317-1.28-1.268-1.28Zm231.861 0h-7.771c-.951 0-1.269.32-1.269 1.28v29.76s-15.542-24.48-17.603-27.68c-2.379-3.68-3.172-3.36-9.992-3.36h-8.881c-1.11 0-1.269.32-1.269 1.28v37.44c0 .96.159 1.28 1.269 1.28h7.771c1.11 0 1.269-.16 1.269-1.28v-29.44s12.846 20.32 17.128 27.2c2.22 3.52 2.537 3.52 8.881 3.52h10.467c.952 0 1.269-.16 1.269-1.28v-37.44c0-.96-.159-1.28-1.269-1.28Zm-170.011 15.36c-3.806-.32-13.956-1.28-17.286-1.6-1.269-.16-1.586-.8-1.745-1.6v-1.76c.159-1.12.635-1.6 1.904-1.6h27.753c.952 0 1.269-.16 1.269-1.28v-6.4c0-.96-.317-1.12-1.269-1.12h-28.07c-7.296 0-11.42 2.72-12.53 8.32-.317 1.28-.317 2.72-.317 3.84 0 1.28.159 2.72.159 3.68.476 3.2 2.379 6.88 10.784 7.84 6.661.64 16.335 1.44 19.507 1.76 1.427.16 1.745 1.28 1.745 1.92v2.56c0 .96-.476 1.28-1.586 1.28H79.815c-.952 0-1.269.16-1.269 1.28v6.4c0 .96.317 1.28 1.269 1.28h29.022c7.137 0 11.894-1.28 13.163-7.52.317-1.28.317-3.04.317-4.32 0-1.92-.158-3.52-.317-4.16-1.269-6.88-6.185-8.16-13.322-8.8Zm50.909 0c-3.807-.32-13.957-1.28-17.287-1.6-1.269-.16-1.586-.8-1.745-1.6v-1.76c.159-1.12.635-1.6 1.904-1.6h27.753c.952 0 1.269-.16 1.269-1.28v-6.4c0-.96-.317-1.12-1.269-1.12h-28.071c-7.295 0-11.418 2.72-12.528 8.32-.318 1.28-.318 2.72-.318 3.84 0 1.28.159 2.72.159 3.68.476 3.2 2.379 6.88 10.784 7.84 6.661.64 16.335 1.44 19.507 1.76 1.427.16 1.745 1.28 1.745 1.92v2.56c0 .96-.476 1.28-1.586 1.28h-29.181c-1.11 0-1.269.16-1.269 1.28v6.4c0 .96.317 1.28 1.269 1.28h29.022c7.137 0 11.895-1.28 13.163-7.52.317-1.28.317-3.04.317-4.32 0-1.92-.158-3.52-.317-4.16-1.427-6.88-6.343-8.16-13.321-8.8Z" />
    </symbol>

    <symbol id="chevrolet" width="280" height="250" viewBox="0 0 280 250"
      xmlns="http://www.w3.org/2000/svg">
      <path fill-rule="evenodd" clip-rule="evenodd"
        d="M190.084 96.9456V80H89.7813V96.9456H26.7358L0 152.199H89.7798V170H190.082V152.199H252.134L280 96.9456H190.084ZM240.531 135.117H175.407V152.199H105.542V135.117H26.7358L37.2586 113.17H105.542V96.9456H175.407V113.17H252.136L240.531 135.117Z"
        fill="black" />
    </symbol>

    <symbol id="vw" xmlns="http://www.w3.org/2000/svg" width="181" height="181" viewBox="0 0 181 181">
      <g fill-rule="evenodd" clip-rule="evenodd">
        <path fill="#000" d="M90.537 0c49.83 0 90.462 40.634 90.462 90.537 0 49.754-40.633 90.463-90.462 90.463C40.707 181 0 140.291 0 90.537-.001 40.633 40.708 0 90.537 0Z"/>
        <path fill="#fff" d="M90.537 11.493c43.451 0 78.971 35.518 78.971 79.045 0 43.452-35.519 78.895-78.971 78.895-43.453 0-78.97-35.444-78.97-78.896 0-43.526 35.517-79.044 78.97-79.044ZM37.667 48.05l28.326 73.483 10.38-26.843h27.213l10.38 26.843 28.622-74.373a68.21 68.21 0 0 0-17.945-15.274l-19.871 54.722h-28.03L56.799 31.661c-7.34 4.227-13.792 9.789-19.131 16.388Zm116.342 18.463-32.256 84.161c21.653-11.345 36.555-34.035 36.555-60.135 0-8.454-1.482-16.537-4.299-24.026Zm-46.345 89.647-.22-1.706-17.502-45.379-17.498 45.379-.074 1.41c5.783 1.63 11.864 2.447 18.167 2.447 5.93 0 11.641-.741 17.127-2.151Zm-49.68-6.228L26.545 67.995c-2.52 7.044-3.856 14.608-3.856 22.542 0 25.507 14.237 47.899 35.295 59.394ZM90.537 22.689c5.93 0 11.789.742 17.351 2.224L90.759 72.296 73.556 24.84a67.453 67.453 0 0 1 16.98-2.15Z"/>
      </g>
    </symbol>

    <symbol id="honda" xmlns="http://www.w3.org/2000/svg" width="233" height="185" viewBox="0 0 233 185">
      <path fill="#000" fill-rule="evenodd" d="m108.262 134.025-58.65 6.301 11.579 11.285h83.031l-30.783-18.153-5.177.567Zm0-46.744 80.774-21.539s11.768-.846 23.441-27.274L108.262 72.609 27.206 99.037s-6.967 2.257-9.697 4.138c0 0-1.883 1.13-1.883 3.761 0 0 .188 1.976 1.6 3.388l3.484 3.48 44.246-11.475s-2.73-3.575 2.73-4.326l40.576-10.722Zm0 42.135c.094.94.847 1.789.847 1.789l-.847.092-61.474 6.96-11.675-10.909 73.148-13.075 62.508-11.098c-10.259 20.129-30.972 20.129-30.972 20.129l-25.793 3.291c-4.331.094-5.554 1.222-5.743 2.353l.001.468Zm0-34.8 85.199-21.537c-10.073 22.761-30.314 23.513-30.314 23.513l-54.885 11.098-17.981 3.667c-8.662.189-4.896 4.61-4.896 4.61l-52.436 8.936-9.79-8.654 85.103-21.633Zm0-45.99L227.352 0s-4.05 11.946-6.592 18.059c0 0-3.106 9.687-15.531 13.543l-96.967 34.236L24.193 95.37s-10.825 3.857-12.614 8.372c0 0-2.542 5.171 4.331 11.004l40.574 36.868H40.575L7.908 119.636S.565 113.616 0 105.057v-1.786c.095-.564.095-1.128.283-1.787 0 0 1.412-9.406 15.533-15.142l92.446-37.716Zm-86.61 109.006H.564v5.174h4.8v15.705h-4.8v5.362h21.087v-5.362h-5.178v-4.984h15.534v4.984h-5.084v5.362H47.73v-5.362h-4.989v-15.705h4.99v-5.174H26.83v5.174h5.178v5.171H16.474v-5.171h5.177v-5.174Zm185.177 12.134h4.048l-4.048-6.114-.472-.564-3.67 6.678h4.142Zm0-12.134h8.378l12.615 20.879H233v5.362h-22.69v-5.362h5.084l-2.165-3.103h-13.743l-1.695 3.103h4.989v5.362h-17.509v-5.362h5.366l8.66-15.705h-5.836v-5.174h13.368Zm-40.387 20.597c4.989-.564 7.908-2.445 7.908-7.336 0-5.643-3.294-7.429-7.908-7.901-.847-.094-1.695-.094-2.634-.094h-5.274v15.519h4.237c1.318 0 2.541-.093 3.671-.188Zm0-20.597h3.388c8.662 0 15.159 4.044 15.159 13.261 0 10.627-6.119 12.792-18.547 12.98h-23.63v-5.362h5.084v-15.705h-5.084v-5.174h23.63Zm-96.59 21.82c4.896-.095 8.756-3.949 8.756-8.654 0-4.984-3.954-8.745-8.755-8.745h-.095c-4.801 0-8.66 3.761-8.66 8.653 0 4.608 3.67 8.746 8.567 8.746h.188Zm0-23.138h.283c12.332 0 20.429 4.61 20.429 14.11 0 8.746-7.438 14.576-20.711 14.576h-.377c-12.897 0-20.617-4.984-20.617-14.388 0-9.03 7.625-14.298 20.994-14.298Zm43.211 1.318H92.259v5.174h4.989v15.705h-4.99v5.362h16.57v-5.362h-5.179v-13.448l14.593 18.808h16.098v-21.067h5.27v-5.173h-17.134v5.173h5.367v13.825l-14.78-18.997Z" clip-rule="evenodd"/>
    </symbol>

    <symbol id="landRover" xmlns="http://www.w3.org/2000/svg" width="280" height="250" viewBox="0 0 280 250">
      <path fill="#000" fill-rule="evenodd" d="M273.443 124.852c0 38.578-59.653 69.852-133.215 69.852C66.645 194.704 7 163.43 7 124.852 7 86.275 66.645 55 140.228 55c73.562 0 133.215 31.275 133.215 69.852Z" clip-rule="evenodd"/>
      <path fill="#fff" fill-rule="evenodd" d="M267.933 124.802c0 35.43-57.201 64.149-127.753 64.149-70.556 0-127.755-28.719-127.755-64.149 0-35.429 57.199-64.149 127.755-64.149 70.552 0 127.753 28.72 127.753 64.149ZM140.18 65.703c-67.79 0-122.746 26.46-122.746 59.099 0 32.638 54.957 59.097 122.746 59.097 67.785 0 122.739-26.459 122.739-59.097.002-32.639-54.954-59.099-122.739-59.099Z" clip-rule="evenodd"/>
      <path fill="#fff" fill-rule="evenodd" d="M259.746 124.802c0 30.885-53.533 55.921-119.567 55.921-66.036 0-119.566-25.036-119.566-55.921 0-30.882 53.532-55.918 119.566-55.918 66.034-.002 119.567 25.036 119.567 55.918Zm-42.938-26.18h-20.504l-2.499 7.14h13.275l-15.14 5.242-1 2.896 23.294-7.639 2.574-7.64ZM86.062 111.153H77.71s7.741-20.635 8.363-22.195c1.105-2.765 1.763-2.574 1.763-2.574H76.3c1.428.682.162 3.378.162 3.378s-9.24 25.733-9.885 27.019c-.644 1.287-1.126 1.449-1.126 1.449h19.982l2.794-7.621c-.241.725-2.164.544-2.164.544Zm35.048 7.045h9.412s-.644-.955-.242-1.999c.556-1.451 5.548-15.038 5.548-15.038l2.171 17.037h8.525l11.175-30.307s.456-1.422 1.081-1.422l-9.059-.027s.261 1.046-.065 1.85c-.317.804-5.465 14.556-5.465 14.556l-2.01-16.406h-9.73s.503.803.181 1.689l-10.315 28.307s-.643 1.76-1.207 1.76Zm43.026-31.747s.802 1.287-.243 4.261c-1.047 2.978-9.247 25.091-9.247 25.091s-.646 2.08-1.532 2.485l12.869-.014s15.598.576 20.425-15.82c0 0 6.112-16.164-11.581-16.002l-10.691-.001Zm1.366 24.499s.041-.012 1.486-.012c2.187 0 6.241-.482 8.969-7.116 4.477-10.902-1.771-10.534-1.771-10.534h-2.414l-6.27 17.662ZM51.07 143.875h20.505l2.495-7.142H60.8l15.14-5.241 1.001-2.892-23.297 7.639-2.573 7.636Zm35.937 13.17c-.325 0-.325-1.037-.325-1.037l3.77-10.009s4.7 9.221 5.022 9.864c.321.646.16 1.181.16 1.181h11.239c-1.073 0-2.178-2.038-2.178-2.038L99.1 144.962c7.828 0 10.329-7.754 10.329-7.754 3.86-12.332-9.129-12.01-9.129-12.01H87.005c.965 1.071.213 3.324.213 3.324s-8.255 23.602-8.898 25.426c-.644 1.824-1.824 3.094-1.824 3.094l10.51.003Zm7.967-24.522-2.179 6.402h2.038s3.969.352 5.432-2.804c0 0 1.713-3.616-3.075-3.616-1.049 0-2.216.018-2.216.018Zm108.337 24.641c-.802.018-.243-1.952-.243-1.952l3.367-9.096s4.533 9.224 4.853 9.87c.323.642.163 1.178.163 1.178h11.64c-1.075 0-2.253-2.041-2.253-2.041l-5.596-10.041c7.829 0 10.187-7.48 10.187-7.48 4.11-12.911-8.985-12.286-8.985-12.286h-13.188c.966 1.072.217 3.325.217 3.325s-8.602 23.694-9.245 25.515a8.299 8.299 0 0 1-1.88 2.988l10.963.02Zm7.667-18.122s3.938.296 5.144-2.789c1.423-3.633-2.126-3.539-2.126-3.539h-2.911l-2.147 6.328h2.04Zm-87.647 18.795c11.603 0 18.508-11.383 18.508-19.547 0-8.565-3.521-13.911-11.559-13.911-10.258 0-16.95 7.785-18.677 17.462-1.587 8.898 3.439 15.996 11.728 15.996Zm.731-7.528c2.894.537 6.077-1.547 7.738-8.201 2.52-10.071-2.124-10.153-2.971-10.258-2.569-.314-5.996 2.644-7.39 8.81-.638 2.815-1.314 8.919 2.623 9.649Zm20.532-24.99s.796.429.796 2.463v27.559s-.109 1.507-.678 1.824h8.621s0-.646.855-1.718c.858-1.071 18.764-25.089 18.764-25.089s4.083-5.039 5.154-5.039h-12.339s.969.643.217 1.821c-.749 1.181-11.719 17.586-11.719 17.586l.139-16.546s-.021-2.653 1.045-2.875l-10.855.014Zm52.121 7.512 2.789-7.521-20.908.003s.752.664-.214 3.343c-.965 2.683-9.437 25.515-9.437 25.515s-1.498 3-1.925 3h21.547l2.573-7.61s-.32.426-2.357.426h-9.115l1.93-5.147h7.074s1.501-.107 1.824.323l2.892-8.134s-.21.734-2.143.734h-6.861l2.038-5.679h8.685c.002 0 1.183-.163 1.608.747ZM87.722 118.227h10.316s-.032-.792.236-1.306c.49-.929 1.769-3.171 1.769-3.171h10.382l.02 2.795s.053.965-.711 1.708h10.294s-.764-.429-.905-1.695l-1.293-27.982s-.056-1.79.796-2.167h-10.212s.715.884-.652 2.896c-1.366 2.01-18.812 27.877-18.812 27.877s-.345.663-1.228 1.045Zm22.503-20.985-5.732 9.325h5.813l-.081-9.325Z" clip-rule="evenodd"/>
    </symbol>

    <symbol id="volvo" xmlns="http://www.w3.org/2000/svg" width="205" height="206" viewBox="0 0 205 206">
      <g fill="#000">
        <path d="M166.209 91.116c-6.707 0-12.163 4.107-12.163 9.155 0 5.049 5.456 9.156 12.163 9.156 6.854 0 12.426-4.107 12.426-9.156 0-5.048-5.572-9.155-12.426-9.155Zm0 15.339c-2.369 0-4.167-2.656-4.167-6.176 0-3.736 1.759-6.438 4.167-6.438s4.176 2.88 4.168 6.438c-.016 3.343-1.914 6.176-4.168 6.176ZM74.105 91.116c-6.707 0-12.17 4.107-12.17 9.155 0 5.049 5.463 9.156 12.17 9.156 6.854 0 12.426-4.107 12.426-9.156 0-5.048-5.572-9.155-12.426-9.155Zm0 15.339c-2.377 0-4.167-2.656-4.167-6.176 0-3.736 1.752-6.438 4.167-6.438 2.316 0 4.176 2.88 4.168 6.438 0 3.343-1.914 6.176-4.168 6.176Zm65.1-12.22h3.017l-5.286 10.305-6.036-10.305h4.276v-2.262h-17.095v2.262h4.021l7.787 14.582h9.308l7.795-14.582h4.013v-2.262h-11.8v2.262Zm-93.1.216h3.087l-5.163 9.642-5.642-9.642h4.122v-2.71H24.974v2.687h4.106l7.718 14.474.053.108h9.555l.062-.108 7.718-14.474h4.105V91.74H46.105v2.71Zm-1.991 9.989 2.169-4.053-2.13 4.115-.039-.062Zm-3.967-6.523-2.138-3.543h.062l2.076 3.543Zm69.174 8.136h-4.283V94.235h4.029v-2.262H93.222v2.262h4.029v11.818h-4.029v2.764h23.887v-7.812H114.6a5.27 5.27 0 0 1-5.279 5.048Zm59.844-81.403-10.38 10.406a88.355 88.355 0 0 1 13.892 14.614l10.442-10.422 4.414-4.415a107.593 107.593 0 0 1 11.986 17.901h2.678V5.382h-47.271v2.679a108.229 108.229 0 0 1 18.422 12.428l-4.183 4.161Z"/>
        <path d="m187.858 45.764-10.612 10.614A87.941 87.941 0 0 1 156.225 172.1a87.899 87.899 0 0 1-60.306 18.138 87.896 87.896 0 0 1-56.96-26.862 87.938 87.938 0 0 1-3.674-117.56 87.89 87.89 0 0 1 116.492-16.033l10.519-10.53A102.48 102.48 0 0 0 24.981 35.448a102.538 102.538 0 0 0 3.742 138.248 102.488 102.488 0 0 0 67.3 31.147 102.488 102.488 0 0 0 70.69-22.407 102.543 102.543 0 0 0 21.145-136.673Z"/>
      </g>
    </symbol>

    <symbol id="mitsubishi" xmlns="http://www.w3.org/2000/svg" width="184" height="204" viewBox="0 0 184 204">
      <path fill="#000" fill-rule="evenodd" d="M91.126 107.947H30.199L0 160.971h61.102l30.024-53.024Zm30.955-54.396L91.619 0l-30.55 53.551 30.55 53.64 30.462-53.64Zm-.031 107.42h61.101l-30.2-53.024H92.025l30.025 53.024Zm-2.71 41.548h4.563v-24.374h-4.563v24.374Zm51.171 0h4.564v-24.374h-4.564v24.374Zm-136.926 0h4.562v-24.374h-4.562v24.374Zm22.002-24.374H41.476v4.133h4.703v20.241h4.704v-20.241h4.704v-4.133Zm105.788 9.265h-10.274v-9.265h-4.562v24.374h4.562v-10.976h10.274v10.976h4.56v-24.374h-4.56v9.265Zm-142.518 1.639-4.277-10.904H9.306v24.374h4.562V187.41l4.99 12.115 4.845-12.257v15.251h4.56v-24.374h-5.13l-4.276 10.904Zm75.385-10.902h-4.52v17.39c0 1.892-2.12 3.426-4.012 3.426-1.892 0-4.012-1.534-4.012-3.426v-17.39h-4.604l.067 17.177c0 4.397 4.15 7.962 8.547 7.962 4.399 0 8.549-3.565 8.549-7.962l-.015-17.177Zm17.593 11.187c.641-.428 3.065-1.853 3.065-4.916 0-4.278-3.421-6.202-5.703-6.272H98.63v24.374h9.354c3.708 0 7.698-1.782 7.698-6.486.001-4.063-1.921-5.632-3.847-6.7Zm-3.634 9.052h-5.006v-16.108h4.792c1.284 0 2.281 1.069 2.281 2.353 0 1.283-.498 2.779-2.209 2.779h-1.992v4.134h2.135c1.284 0 3.064 1.212 2.994 3.706-.063 2.137-1.784 3.136-2.995 3.136Zm-50.787-3.777c-.036.248 0 .534.016.997 0 4.203 3.406 7.396 7.61 7.396 4.202 0 7.609-2.835 7.609-7.039 0-2.212-.866-3.92-2.371-5.311-1.23-1.134-4.73-2.836-6.094-3.67-1.283-.785-1.888-1.389-1.919-2.53 0-1.67 1.104-2.845 2.774-2.845a3.024 3.024 0 0 1 3.024 3.024c.03.428.042.855.042 1.139h4.04v-1.139c0-3.924-2.472-7.035-7.106-7.035-3.923 0-7.106 2.687-7.106 7.035.014 1.924.905 3.776 3.115 5.238 2.374 1.569 5.345 2.742 6.343 3.741.602.602.974 1.433.974 2.351 0 1.837-1.49 3.148-3.327 3.148s-3.314-1.615-3.54-3.148c-.048-.391-.166-1.068-.13-1.353h-3.954v.001Zm77.043-7.627c-1.284-.785-1.889-1.389-1.921-2.53 0-1.67 1.106-2.845 2.776-2.845a3.022 3.022 0 0 1 3.022 3.024c.031.428.042.855.042 1.139h4.041v-1.139c0-3.924-2.474-7.035-7.105-7.035-3.926 0-7.107 2.687-7.107 7.035.015 1.924.906 3.776 3.115 5.238 2.375 1.569 5.346 2.742 6.343 3.741.601.602.974 1.433.974 2.351 0 1.837-1.49 3.148-3.326 3.148-1.837 0-3.315-1.615-3.542-3.148-.047-.391-.165-1.068-.13-1.353h-3.956c-.036.248 0 .534.018.997 0 4.203 3.406 7.396 7.61 7.396 4.202 0 7.608-2.836 7.608-7.04 0-2.211-.866-3.919-2.371-5.31-1.227-1.133-4.728-2.835-6.091-3.669Z" clip-rule="evenodd"/>
    </symbol>

    <symbol id="toyota" xmlns="http://www.w3.org/2000/svg" width="280" height="250" viewBox="0 0 280 250">
      <path fill="#000" fill-rule="evenodd" d="M33.783 145.659c-3.667-2.319-6.37-10.321-6.37-19.831 0-.349.002-.693.01-1.036l.004.004c-10.201-1.618-17.57-6.051-17.76-11.296l-.03.062c-2.495 3.132-3.92 6.752-3.92 10.61 0 11.351 12.343 20.652 28 21.475l.066.012ZM1 124.999C1 112.299 16.659 102 35.974 102c19.316 0 34.975 10.299 34.975 22.999C70.949 137.701 55.29 148 35.974 148 16.659 148 1 137.701 1 124.999Zm34.975-19.68c3.73 0 6.902 5.711 8.077 13.679l.003-.013c7.256-1.14 12.335-3.769 12.335-6.83 0-4.107-9.14-7.433-20.415-7.433-11.273 0-20.413 3.326-20.413 7.433 0 3.061 5.078 5.689 12.333 6.83l.004.013c1.176-7.968 4.348-13.679 8.076-13.679Zm2.258 40.327c15.657-.823 28.002-10.124 28.002-21.476 0-3.857-1.427-7.478-3.92-10.609l-.031-.062c-.188 5.244-7.558 9.678-17.76 11.296l.004-.005c.007.343.01.688.01 1.037 0 9.509-2.704 17.512-6.37 19.831l.065-.012Zm-2.258-26.058a54.52 54.52 0 0 0 4.85-.209l-.002.002c-.773-5.106-2.651-8.712-4.846-8.712-2.196 0-4.073 3.606-4.847 8.712l-.002-.002a54.86 54.86 0 0 0 4.847.209Zm0 18.914c2.808 0 5.099-5.898 5.22-13.294l.015.005a56.486 56.486 0 0 1-10.468 0l.014-.005c.122 7.396 2.411 13.294 5.219 13.294Zm143.491-13.503c0-9.707 7.797-17.578 17.413-17.578 9.621 0 17.416 7.871 17.416 17.578 0 9.71-7.797 17.578-17.416 17.578-9.616 0-17.413-7.868-17.413-17.578Zm17.413 11.133c5.37 0 9.726-4.986 9.726-11.134 0-6.147-4.356-11.132-9.726-11.132-5.37 0-9.722 4.985-9.722 11.132 0 6.15 4.353 11.134 9.722 11.134Zm37.176-21.388v27.035h-7.339v-27.035h.026-10.26v-6.111h27.807v6.111h-10.234Zm19.111 19.578-.006.007-2.815 7.452h-8.571l13.548-33.148h9.133L278 141.781h-8.569l-2.815-7.452-.008-.007h-13.442Zm6.722-5.595h4.618l-.003.002-4.584-12.132h-.063l-4.584 12.132-.003-.002h4.619ZM98.803 114.744v27.035h-7.337v-27.035h.026H81.23v-6.111h27.809v6.111H98.803Zm12.113 10.255c0-9.707 7.797-17.578 17.416-17.578 9.618 0 17.415 7.871 17.415 17.578 0 9.71-7.797 17.578-17.415 17.578-9.619 0-17.416-7.868-17.416-17.578Zm17.416 11.133c5.369 0 9.724-4.986 9.724-11.134 0-6.147-4.355-11.132-9.724-11.132-5.37 0-9.724 4.985-9.724 11.132 0 6.15 4.354 11.134 9.724 11.134Zm34.272 5.647h3.721v-12.585l12.801-20.561h-8.569l-7.953 13.932-7.95-13.932h-8.569l12.8 20.561v12.585h3.719Z" clip-rule="evenodd"/>
    </symbol>

    <symbol id="mercedes" xmlns="http://www.w3.org/2000/svg" width="280" height="250" viewBox="0 0 280 250">
      <path fill="#000" fill-rule="evenodd" d="M140 230c-57.99 0-105-47.012-105-105C35 67.01 82.01 20 140 20c57.991 0 105 47.01 105 105 0 57.988-47.009 105-105 105Z" clip-rule="evenodd"/>
      <path fill="#fff" fill-rule="evenodd" d="m140.52 141.135-85.43 35.353c18 30.241 50.618 48.693 85.794 48.511 35.085-.091 67.612-18.729 85.429-49.058l-85.793-34.806Zm-14.798-24.969L139.335 26c-35.086.456-67.43 19.367-84.972 49.788-17.633 30.421-17.816 67.875-.547 98.48l71.906-58.102Zm29.141 1.196 72.727 56.273c16.904-30.603 16.538-67.784-1.094-98.022a99.558 99.558 0 0 0-84.608-49.606l12.975 91.355Z" clip-rule="evenodd"/>
    </symbol>

    <symbol id="man" xmlns="http://www.w3.org/2000/svg" width="241" height="133" viewBox="0 0 241 133">
      <g fill="#000" fill-rule="evenodd" clip-rule="evenodd">
        <path d="M228.476 132.519c.373-3.648.562-8.275.562-12.021 0-59.944-48.596-108.539-108.54-108.539-59.944 0-108.539 48.595-108.539 108.539 0 4.084.226 8.061.665 12.029l-12.002-.015A116.053 116.053 0 0 1 0 120.498C0 53.95 53.951 0 120.499 0 187.05 0 241 53.95 241 120.498c0 4.055-.201 8.061-.591 12.014l-11.933.007Z"/>
        <path d="m50.725 129.801 12.688-13.11v15.86H80.96V97.029H63.413l-12.688 15.223-12.684-15.223H20.49v35.522h17.55v-15.86l12.684 13.11Zm108.676-32.772v35.522h17.551v-18.607l23.466 18.607h18.606V97.029h-17.549v19.03l-24.523-19.03h-17.551ZM87.515 132.55l22.411-35.522h20.509l22.623 35.522h-18.605l-14.166-22.411-6.977 11.414h13.952l5.077 7.825h-24.103l-2.115 3.172H87.516Z"/>
      </g>
    </symbol>

    <symbol id="bmw" xmlns="http://www.w3.org/2000/svg" width="200" height="200" viewBox="0 0 24 24">
      <path d="M12 0C5.373 0 0 5.373 0 12s5.373 12 12 12 12-5.373 12-12S18.627 0 12 0zm0 .78C18.196.78 23.219 5.803 23.219 12c0 6.196-5.022 11.219-11.219 11.219C5.803 23.219.781 18.196.781 12S5.804.78 12 .78zm-.678.63c-.33.014-.66.042-.992.078l-.107 2.944a9.95 9.95 0 0 1 .71-.094l.07-1.988-.013-.137.043.13.664 1.489h.606l.664-1.488.04-.131-.01.137.07 1.988c.232.022.473.054.71.094l-.109-2.944a14.746 14.746 0 0 0-.992-.078l-.653 1.625-.023.12-.023-.12-.655-1.625zm6.696 1.824-1.543 2.428c.195.15.452.371.617.522l1.453-.754.092-.069-.069.094-.752 1.453c.163.175.398.458.53.63l2.43-1.544a16.135 16.135 0 0 0-.46-.568L18.777 6.44l-.105.092.078-.115.68-1.356-.48-.48-1.356.68-.115.078.091-.106 1.018-1.539c-.18-.152-.351-.291-.57-.46zM5.5 3.785c-.36.037-.638.283-1.393 1.125a18.97 18.97 0 0 0-.757.914l2.074 1.967c.687-.76.966-1.042 1.508-1.613.383-.405.6-.87.216-1.317-.208-.242-.558-.295-.85-.175l-.028.01.01-.026a.7.7 0 0 0-.243-.734.724.724 0 0 0-.537-.15zm.006.615c.136-.037.277.06.308.2.032.14-.056.272-.154.382-.22.25-1.031 1.098-1.031 1.098l-.402-.383c.417-.51.861-.974 1.062-1.158a.55.55 0 0 1 .217-.139zM12 4.883a7.114 7.114 0 0 0-7.08 6.388v.002a7.122 7.122 0 0 0 8.516 7.697 7.112 7.112 0 0 0 5.68-6.97A7.122 7.122 0 0 0 12 4.885v-.002zm-5.537.242c.047 0 .096.013.14.043.088.059.128.16.106.26-.026.119-.125.231-.205.318l-1.045 1.12-.42-.4s.787-.832 1.045-1.099c.102-.106.168-.17.238-.205a.331.331 0 0 1 .14-.037zM12 5.818A6.175 6.175 0 0 1 18.182 12H12v6.182A6.175 6.175 0 0 1 5.818 12H12V5.818z"/>
    </symbol>

    <symbol id="mail" xmlns="http://www.w3.org/2000/svg" width="24" height="24" viewBox="0 0 24 24" fill="none">
      <path d="M20.1941 18.7813H3.8042C3.27146 18.7807 2.76072 18.5688 2.38403 18.1921C2.00735 17.8154 1.79548 17.3046 1.79492 16.7718V6.64961C1.79548 6.11687 2.00735 5.60611 2.38403 5.22938C2.76072 4.85266 3.27146 4.64075 3.8042 4.64014H20.1941C20.7268 4.64075 21.2376 4.85266 21.6143 5.22938C21.9909 5.60611 22.2028 6.11687 22.2034 6.64961V16.7718C22.2028 17.3046 21.9909 17.8154 21.6143 18.1921C21.2376 18.5688 20.7268 18.7807 20.1941 18.7813ZM3.8042 5.40814C3.47507 5.40849 3.15952 5.53941 2.92681 5.77216C2.6941 6.00491 2.56323 6.32048 2.56292 6.64961V16.7718C2.56323 17.101 2.6941 17.4165 2.92681 17.6493C3.15952 17.882 3.47507 18.013 3.8042 18.0133H20.1941C20.5232 18.013 20.8388 17.882 21.0715 17.6493C21.3042 17.4165 21.4351 17.101 21.4354 16.7718V6.64961C21.4351 6.32048 21.3042 6.00491 21.0715 5.77216C20.8388 5.53941 20.5232 5.40849 20.1941 5.40814H3.8042Z" fill="#0F26F2"/>
      <path d="M12.0008 13.9706C11.9072 13.9707 11.8168 13.9365 11.7466 13.8746L2.49219 5.70539L3.00041 5.12939L12.0008 13.0751L21.0016 5.13035L21.5098 5.70635L12.2554 13.8756C12.185 13.9373 12.0944 13.9711 12.0008 13.9706Z" fill="#0F26F2"/>
      <path d="M2.2832 17.5757L8.50021 10.4921L9.07775 10.9989L2.86074 18.0826L2.2832 17.5757Z" fill="#0F26F2"/>
      <path d="M14.9434 10.9912L15.5209 10.4843L21.738 17.5681L21.1605 18.075L14.9434 10.9912Z" fill="#0F26F2"/>
    </symbol>

    <symbol id="linkedIn" xmlns="http://www.w3.org/2000/svg" width="24" height="24" viewBox="0 0 24 24" fill="none">
      <path d="M4.69446 2C3.96265 2 3.29733 2.26613 2.79836 2.76511C2.26613 3.29733 2 3.96261 2 4.66117C2 5.39299 2.29938 6.0583 2.79836 6.55727C3.29733 7.05625 3.9959 7.35563 4.66121 7.32238C4.66121 7.32238 4.69446 7.32238 4.72775 7.32238C5.39306 7.32238 6.02509 7.05625 6.52406 6.55727C7.02304 6.0583 7.32242 5.39299 7.32242 4.66117C7.35567 3.96261 7.05629 3.29729 6.55731 2.79832C6.05834 2.26609 5.39303 2 4.69446 2ZM6.05834 6.09159C5.69241 6.45752 5.19344 6.69036 4.66121 6.65711C4.16224 6.65711 3.63001 6.45752 3.26408 6.09159C2.8649 5.72566 2.66531 5.19344 2.66531 4.66121C2.66531 4.12898 2.8649 3.63001 3.26408 3.23083C3.63001 2.8649 4.12898 2.66531 4.69446 2.66531C5.19344 2.66531 5.69241 2.8649 6.05834 3.23083C6.45752 3.63001 6.65711 4.12898 6.65711 4.66121C6.65711 5.19344 6.45752 5.72566 6.05834 6.09159Z" fill="#0F26F2"/>
      <path d="M5.99119 7.98779H3.29673C2.7645 7.98779 2.33203 8.42022 2.33203 8.98574V20.6285C2.33203 21.1607 2.79775 21.6264 3.32998 21.6264H5.99119C6.52342 21.6264 6.98914 21.1607 6.98914 20.6617V8.98574C6.98914 8.45348 6.52342 7.98779 5.99119 7.98779ZM6.32383 20.6617C6.32383 20.8281 6.15749 20.9611 5.99119 20.9611H3.32998C3.16364 20.9611 2.99734 20.7948 2.99734 20.6285V8.98574C2.99734 8.8194 3.13039 8.65311 3.29673 8.65311H5.99119C6.15753 8.65311 6.32383 8.81944 6.32383 8.98574V20.6617Z" fill="#0F26F2"/>
      <path d="M17.3032 7.65479H16.6047C15.3074 7.65479 14.0766 8.2203 13.2782 9.11846V8.65273C13.2782 8.3201 12.9456 7.98742 12.6129 7.98742H9.28641C8.98702 7.98742 8.62109 8.25355 8.62109 8.61944V21.0273C8.62109 21.3932 8.98702 21.626 9.28641 21.626H12.9456C13.2449 21.626 13.6109 21.3932 13.6109 21.0273V13.842C13.6109 12.7443 14.4092 11.8794 15.4404 11.8794C15.9727 11.8794 16.4716 12.079 16.8376 12.4449C17.1702 12.7443 17.3033 13.21 17.3033 13.8088V20.9608C17.3033 21.2934 17.6359 21.6261 17.9686 21.6261H21.2951C21.6277 21.6261 21.9604 21.2934 21.9604 20.9608V12.3784C21.9604 9.71723 19.9312 7.65479 17.3032 7.65479ZM21.295 20.9275L21.2618 20.9608H18.0018L17.9686 13.8088C17.9686 13.0105 17.769 12.4117 17.3365 11.9793C16.8376 11.4803 16.1723 11.2141 15.4737 11.2141C14.0766 11.2474 12.9788 12.3784 12.9788 13.8421V20.9608H9.31966V8.65273H12.6129L12.6461 8.68599V10.7817L13.5443 9.88353L13.5775 9.85027C14.2429 8.91887 15.4071 8.3201 16.6379 8.3201H17.3365C19.5652 8.3201 21.295 10.1164 21.295 12.3784V20.9275Z" fill="#0F26F2"/>
    </symbol>

    <symbol id="map" xmlns="http://www.w3.org/2000/svg" width="24" height="24" viewBox="0 0 24 24" fill="none">
      <path fill-rule="evenodd" clip-rule="evenodd" d="M11.961 16.5682C11.8125 16.5682 11.6746 16.4912 11.5977 16.3659C11.3201 15.9237 10.946 15.3669 10.5128 14.7242C8.76907 12.1355 6.38086 8.59257 6.38086 6.58029C6.38086 3.50281 8.88367 1 11.9611 1C15.0386 1 17.5414 3.50281 17.5414 6.58029C17.5414 8.59252 15.1532 12.1373 13.4095 14.7242C12.9762 15.3669 12.602 15.9237 12.3246 16.3659C12.2474 16.493 12.1096 16.5682 11.961 16.5682ZM11.961 1.85934C9.358 1.85934 7.24015 3.97724 7.24015 6.58029C7.24015 8.32937 9.63734 11.8884 11.2253 14.2444C11.4956 14.6472 11.7445 15.0142 11.961 15.3454C12.1777 15.0142 12.4265 14.6472 12.6969 14.2444C14.2831 11.8884 16.6802 8.32932 16.6802 6.58029C16.682 3.97719 14.5641 1.85934 11.961 1.85934Z" fill="#0F26F2"/>
      <path fill-rule="evenodd" clip-rule="evenodd" d="M11.9627 9.56274C10.2799 9.56274 8.91211 8.19318 8.91211 6.51206C8.91211 4.82921 10.2817 3.46143 11.9627 3.46143C13.6456 3.46143 15.0134 4.83098 15.0134 6.51206C15.0134 8.19318 13.6456 9.56274 11.9627 9.56274ZM11.9627 4.31904C10.7543 4.31904 9.77145 5.30191 9.77145 6.51033C9.77145 7.7188 10.7543 8.70167 11.9627 8.70167C13.1712 8.70167 14.1541 7.7188 14.1541 6.51033C14.154 5.30186 13.1712 4.31904 11.9627 4.31904Z" fill="#0F26F2"/>
      <path fill-rule="evenodd" clip-rule="evenodd" d="M8.78337 22.9986C8.73861 22.9986 8.69207 22.9914 8.64731 22.9771L2.2936 20.8575C2.11815 20.7983 2 20.6355 2 20.4493V8.09635C2 7.9585 2.06623 7.82782 2.179 7.74727C2.29178 7.66673 2.43505 7.64521 2.56574 7.6882L8.15678 9.55188C8.26062 9.58588 8.34655 9.65932 8.39847 9.75413C8.61508 10.1533 8.86752 10.592 9.15214 11.0575C9.19335 11.1255 9.21482 11.2025 9.21482 11.2812V22.5689C9.21482 22.7068 9.14859 22.8374 9.03582 22.918C8.9606 22.9699 8.87285 22.9986 8.78337 22.9986ZM2.85934 20.1413L8.3537 21.9728L8.35365 11.4012C8.11913 11.0145 7.91327 10.6565 7.72346 10.3145L2.85934 8.69076V20.1413Z" fill="#0F26F2"/>
      <path fill-rule="evenodd" clip-rule="evenodd" d="M8.78519 22.9985C8.69566 22.9985 8.60796 22.9698 8.53452 22.9179C8.4218 22.8373 8.35552 22.7066 8.35552 22.5688L8.35547 11.2811C8.35547 11.0878 8.48443 10.9195 8.66881 10.8676C8.85497 10.8157 9.05194 10.8944 9.15218 11.0574C9.82891 12.1709 10.5719 13.2719 11.2254 14.2441C11.4957 14.6469 11.7446 15.0157 11.9611 15.3451C12.1777 15.0157 12.4266 14.6469 12.6969 14.2441C13.3522 13.2719 14.0934 12.1709 14.7701 11.0574C14.8704 10.8927 15.0673 10.8157 15.2535 10.8676C15.4397 10.9195 15.5668 11.0878 15.5668 11.2811V20.4509C15.5668 20.6353 15.4486 20.8 15.2732 20.8591L8.91953 22.977C8.87644 22.9913 8.83173 22.9985 8.78519 22.9985ZM9.21481 12.7706V21.9726L14.7092 20.1411V12.7706C14.267 13.4545 13.8212 14.1152 13.4113 14.7256C12.978 15.3683 12.6039 15.9251 12.3264 16.3673C12.2476 16.4926 12.1098 16.5695 11.9611 16.5695C11.8126 16.5695 11.6747 16.4926 11.5977 16.3673C11.3202 15.9233 10.9461 15.3683 10.5129 14.7256C10.1028 14.1152 9.65879 13.4545 9.21481 12.7706Z" fill="#0F26F2"/>
      <path fill-rule="evenodd" clip-rule="evenodd" d="M21.4904 22.9986C21.4456 22.9986 21.3991 22.9915 21.3543 22.9772L15.0007 20.8593C14.8252 20.8002 14.7071 20.6373 14.7071 20.4511L14.707 11.2813C14.707 11.2026 14.7285 11.1256 14.7697 11.0576C15.4035 10.0138 15.8671 9.14733 16.1858 8.40797C16.2735 8.20206 16.5044 8.1 16.7157 8.16984L21.6264 9.80615C21.8019 9.86522 21.92 10.0281 21.92 10.2143V22.569C21.92 22.7069 21.8538 22.8375 21.741 22.9181C21.6676 22.97 21.5799 22.9986 21.4904 22.9986ZM15.5664 20.1414L21.0607 21.9728L21.0607 10.524L16.8123 9.10794C16.5027 9.77392 16.0909 10.5294 15.5664 11.4013V20.1414Z" fill="#0F26F2"/>
    </symbol>

    <symbol id="qr" viewBox="0 0 212 212">
      <path fill="#fff" fill-opacity=".992" d="M0 0h212v212H0z"/>
      <path d="M13 13h5v5h-5zm5 0h5v5h-5zm5 0h5v5h-5zm5 0h5v5h-5zm5 0h5v5h-5zm5 0h5v5h-5zm5 0h5v5h-5zm35 0h5v5h-5zm10 0h5v5h-5zm5 0h5v5h-5zm10 0h5v5h-5zm5 0h5v5h-5zm5 0h5v5h-5zm5 0h5v5h-5zm10 0h5v5h-5zm10 0h5v5h-5zm10 0h5v5h-5zm5 0h5v5h-5zm10 0h5v5h-5zm5 0h5v5h-5zm5 0h5v5h-5zm5 0h5v5h-5zm5 0h5v5h-5zm5 0h5v5h-5zm5 0h5v5h-5zM13 18h5v5h-5zm30 0h5v5h-5zm10 0h5v5h-5zm5 0h5v5h-5zm15 0h5v5h-5zm15 0h5v5h-5zm15 0h5v5h-5zm5 0h5v5h-5zm15 0h5v5h-5zm5 0h5v5h-5zm10 0h5v5h-5zm5 0h5v5h-5zm20 0h5v5h-5zm30 0h5v5h-5zM13 23h5v5h-5zm10 0h5v5h-5zm5 0h5v5h-5zm5 0h5v5h-5zm10 0h5v5h-5zm10 0h5v5h-5zm5 0h5v5h-5zm15 0h5v5h-5zm5 0h5v5h-5zm5 0h5v5h-5zm20 0h5v5h-5zm5 0h5v5h-5zm15 0h5v5h-5zm10 0h5v5h-5zm5 0h5v5h-5zm5 0h5v5h-5zm20 0h5v5h-5zm10 0h5v5h-5zm5 0h5v5h-5zm5 0h5v5h-5zm10 0h5v5h-5zM13 28h5v5h-5zm10 0h5v5h-5zm5 0h5v5h-5zm5 0h5v5h-5zm10 0h5v5h-5zm10 0h5v5h-5zm5 0h5v5h-5zm10 0h5v5h-5zm20 0h5v5h-5zm5 0h5v5h-5zm5 0h5v5h-5zm5 0h5v5h-5zm10 0h5v5h-5zm20 0h5v5h-5zm5 0h5v5h-5zm5 0h5v5h-5zm20 0h5v5h-5zm10 0h5v5h-5zm5 0h5v5h-5zm5 0h5v5h-5zm10 0h5v5h-5zM13 33h5v5h-5zm10 0h5v5h-5zm5 0h5v5h-5zm5 0h5v5h-5zm10 0h5v5h-5zm10 0h5v5h-5zm5 0h5v5h-5zm5 0h5v5h-5zm20 0h5v5h-5zm20 0h5v5h-5zm5 0h5v5h-5zm5 0h5v5h-5zm5 0h5v5h-5zm5 0h5v5h-5zm10 0h5v5h-5zm5 0h5v5h-5zm5 0h5v5h-5zm10 0h5v5h-5zm10 0h5v5h-5zm10 0h5v5h-5zm5 0h5v5h-5zm5 0h5v5h-5zm10 0h5v5h-5zM13 38h5v5h-5zm30 0h5v5h-5zm10 0h5v5h-5zm10 0h5v5h-5zm20 0h5v5h-5zm5 0h5v5h-5zm15 0h5v5h-5zm5 0h5v5h-5zm25 0h5v5h-5zm15 0h5v5h-5zm5 0h5v5h-5zm10 0h5v5h-5zm30 0h5v5h-5zM13 43h5v5h-5zm5 0h5v5h-5zm5 0h5v5h-5zm5 0h5v5h-5zm5 0h5v5h-5zm5 0h5v5h-5zm5 0h5v5h-5zm10 0h5v5h-5zm10 0h5v5h-5zm10 0h5v5h-5zm10 0h5v5h-5zm10 0h5v5h-5zm10 0h5v5h-5zm10 0h5v5h-5zm10 0h5v5h-5zm10 0h5v5h-5zm10 0h5v5h-5zm10 0h5v5h-5zm10 0h5v5h-5zm5 0h5v5h-5zm5 0h5v5h-5zm5 0h5v5h-5zm5 0h5v5h-5zm5 0h5v5h-5zm5 0h5v5h-5zM58 48h5v5h-5zm20 0h5v5h-5zm10 0h5v5h-5zm5 0h5v5h-5zm5 0h5v5h-5zm5 0h5v5h-5zm10 0h5v5h-5zm20 0h5v5h-5zm10 0h5v5h-5zm5 0h5v5h-5zM23 53h5v5h-5zm15 0h5v5h-5zm5 0h5v5h-5zm5 0h5v5h-5zm5 0h5v5h-5zm5 0h5v5h-5zm10 0h5v5h-5zm20 0h5v5h-5zm10 0h5v5h-5zm25 0h5v5h-5zm5 0h5v5h-5zm5 0h5v5h-5zm5 0h5v5h-5zm5 0h5v5h-5zm5 0h5v5h-5zm5 0h5v5h-5zm5 0h5v5h-5zm10 0h5v5h-5zm5 0h5v5h-5zm5 0h5v5h-5zm5 0h5v5h-5zm5 0h5v5h-5zM13 58h5v5h-5zm5 0h5v5h-5zm10 0h5v5h-5zm10 0h5v5h-5zm10 0h5v5h-5zm15 0h5v5h-5zm10 0h5v5h-5zm15 0h5v5h-5zm10 0h5v5h-5zm5 0h5v5h-5zm15 0h5v5h-5zm5 0h5v5h-5zm20 0h5v5h-5zm10 0h5v5h-5zm10 0h5v5h-5zm15 0h5v5h-5zM13 63h5v5h-5zm20 0h5v5h-5zm10 0h5v5h-5zm10 0h5v5h-5zm5 0h5v5h-5zm10 0h5v5h-5zm10 0h5v5h-5zm5 0h5v5h-5zm10 0h5v5h-5zm10 0h5v5h-5zm5 0h5v5h-5zm5 0h5v5h-5zm15 0h5v5h-5zm5 0h5v5h-5zm10 0h5v5h-5zm10 0h5v5h-5zm10 0h5v5h-5zm5 0h5v5h-5zm5 0h5v5h-5zm5 0h5v5h-5zm5 0h5v5h-5zm5 0h5v5h-5zM38 68h5v5h-5zm15 0h5v5h-5zm10 0h5v5h-5zm5 0h5v5h-5zm5 0h5v5h-5zm10 0h5v5h-5zm5 0h5v5h-5zm5 0h5v5h-5zm10 0h5v5h-5zm5 0h5v5h-5zm5 0h5v5h-5zm10 0h5v5h-5zm10 0h5v5h-5zm5 0h5v5h-5zm10 0h5v5h-5zm5 0h5v5h-5zm5 0h5v5h-5zm5 0h5v5h-5zm5 0h5v5h-5zm10 0h5v5h-5zm10 0h5v5h-5zm5 0h5v5h-5zM13 73h5v5h-5zm10 0h5v5h-5zm5 0h5v5h-5zm10 0h5v5h-5zm5 0h5v5h-5zm5 0h5v5h-5zm10 0h5v5h-5zm5 0h5v5h-5zm5 0h5v5h-5zm5 0h5v5h-5zm10 0h5v5h-5zm15 0h5v5h-5zm5 0h5v5h-5zm15 0h5v5h-5zm15 0h5v5h-5zm30 0h5v5h-5zm5 0h5v5h-5zm15 0h5v5h-5zm5 0h5v5h-5zm5 0h5v5h-5zM18 78h5v5h-5zm5 0h5v5h-5zm5 0h5v5h-5zm5 0h5v5h-5zm5 0h5v5h-5zm15 0h5v5h-5zm10 0h5v5h-5zm15 0h5v5h-5zm10 0h5v5h-5zm5 0h5v5h-5zm10 0h5v5h-5zm20 0h5v5h-5zm20 0h5v5h-5zm5 0h5v5h-5zm20 0h5v5h-5zm20 0h5v5h-5zm5 0h5v5h-5zM18 83h5v5h-5zm5 0h5v5h-5zm5 0h5v5h-5zm10 0h5v5h-5zm5 0h5v5h-5zm15 0h5v5h-5zm5 0h5v5h-5zm5 0h5v5h-5zm5 0h5v5h-5zm15 0h5v5h-5zm5 0h5v5h-5zm5 0h5v5h-5zm5 0h5v5h-5zm5 0h5v5h-5zm5 0h5v5h-5zm15 0h5v5h-5zm20 0h5v5h-5zm15 0h5v5h-5zm15 0h5v5h-5zM13 88h5v5h-5zm25 0h5v5h-5zm10 0h5v5h-5zm5 0h5v5h-5zm30 0h5v5h-5zm10 0h5v5h-5zm5 0h5v5h-5zm10 0h5v5h-5zm5 0h5v5h-5zm5 0h5v5h-5zm5 0h5v5h-5zm10 0h5v5h-5zm10 0h5v5h-5zm5 0h5v5h-5zm15 0h5v5h-5zm15 0h5v5h-5zm15 0h5v5h-5zM18 93h5v5h-5zm10 0h5v5h-5zm10 0h5v5h-5zm5 0h5v5h-5zm45 0h5v5h-5zm5 0h5v5h-5zm10 0h5v5h-5zm10 0h5v5h-5zm5 0h5v5h-5zm10 0h5v5h-5zm10 0h5v5h-5zm5 0h5v5h-5zm5 0h5v5h-5zm35 0h5v5h-5zm10 0h5v5h-5zM13 98h5v5h-5zm15 0h5v5h-5zm5 0h5v5h-5zm15 0h5v5h-5zm5 0h5v5h-5zm10 0h5v5h-5zm15 0h5v5h-5zm5 0h5v5h-5zm5 0h5v5h-5zm10 0h5v5h-5zm15 0h5v5h-5zm15 0h5v5h-5zm5 0h5v5h-5zm20 0h5v5h-5zm15 0h5v5h-5zm10 0h5v5h-5zm-145 5h5v5h-5zm10 0h5v5h-5zm20 0h5v5h-5zm15 0h5v5h-5zm10 0h5v5h-5zm15 0h5v5h-5zm25 0h5v5h-5zm5 0h5v5h-5zm20 0h5v5h-5zm10 0h5v5h-5zm5 0h5v5h-5zm10 0h5v5h-5zm15 0h5v5h-5zm-165 5h5v5h-5zm20 0h5v5h-5zm5 0h5v5h-5zm5 0h5v5h-5zm5 0h5v5h-5zm5 0h5v5h-5zm10 0h5v5h-5zm15 0h5v5h-5zm5 0h5v5h-5zm5 0h5v5h-5zm15 0h5v5h-5zm5 0h5v5h-5zm5 0h5v5h-5zm5 0h5v5h-5zm5 0h5v5h-5zm10 0h5v5h-5zm5 0h5v5h-5zm15 0h5v5h-5zm10 0h5v5h-5zm5 0h5v5h-5zm10 0h5v5h-5zm-180 5h5v5h-5zm5 0h5v5h-5zm20 0h5v5h-5zm5 0h5v5h-5zm5 0h5v5h-5zm5 0h5v5h-5zm10 0h5v5h-5zm5 0h5v5h-5zm5 0h5v5h-5zm20 0h5v5h-5zm5 0h5v5h-5zm10 0h5v5h-5zm15 0h5v5h-5zm15 0h5v5h-5zm5 0h5v5h-5zm5 0h5v5h-5zm20 0h5v5h-5zm5 0h5v5h-5zm15 0h5v5h-5zm-175 5h5v5h-5zm5 0h5v5h-5zm5 0h5v5h-5zm10 0h5v5h-5zm15 0h5v5h-5zm5 0h5v5h-5zm5 0h5v5h-5zm10 0h5v5h-5zm5 0h5v5h-5zm5 0h5v5h-5zm15 0h5v5h-5zm15 0h5v5h-5zm10 0h5v5h-5zm5 0h5v5h-5zm5 0h5v5h-5zm10 0h5v5h-5zm5 0h5v5h-5zm5 0h5v5h-5zm15 0h5v5h-5zm5 0h5v5h-5zm10 0h5v5h-5zm10 0h5v5h-5zm-175 5h5v5h-5zm15 0h5v5h-5zm15 0h5v5h-5zm5 0h5v5h-5zm15 0h5v5h-5zm5 0h5v5h-5zm5 0h5v5h-5zm20 0h5v5h-5zm5 0h5v5h-5zm15 0h5v5h-5zm5 0h5v5h-5zm30 0h5v5h-5zm10 0h5v5h-5zm5 0h5v5h-5zm15 0h5v5h-5zm15 0h5v5h-5zm-165 5h5v5h-5zm10 0h5v5h-5zm10 0h5v5h-5zm15 0h5v5h-5zm10 0h5v5h-5zm5 0h5v5h-5zm10 0h5v5h-5zm15 0h5v5h-5zm15 0h5v5h-5zm5 0h5v5h-5zm5 0h5v5h-5zm10 0h5v5h-5zm10 0h5v5h-5zm5 0h5v5h-5zm5 0h5v5h-5zm5 0h5v5h-5zm5 0h5v5h-5zm10 0h5v5h-5zm15 0h5v5h-5zm-155 5h5v5h-5zm5 0h5v5h-5zm10 0h5v5h-5zm10 0h5v5h-5zm10 0h5v5h-5zm10 0h5v5h-5zm5 0h5v5h-5zm10 0h5v5h-5zm10 0h5v5h-5zm5 0h5v5h-5zm5 0h5v5h-5zm5 0h5v5h-5zm10 0h5v5h-5zm5 0h5v5h-5zm10 0h5v5h-5zm5 0h5v5h-5zm5 0h5v5h-5zm25 0h5v5h-5zm10 0h5v5h-5zm-175 5h5v5h-5zm10 0h5v5h-5zm20 0h5v5h-5zm10 0h5v5h-5zm25 0h5v5h-5zm15 0h5v5h-5zm5 0h5v5h-5zm30 0h5v5h-5zm35 0h5v5h-5zm10 0h5v5h-5zm10 0h5v5h-5zm5 0h5v5h-5zm-180 5h5v5h-5zm5 0h5v5h-5zm10 0h5v5h-5zm15 0h5v5h-5zm10 0h5v5h-5zm10 0h5v5h-5zm5 0h5v5h-5zm5 0h5v5h-5zm10 0h5v5h-5zm5 0h5v5h-5zm5 0h5v5h-5zm10 0h5v5h-5zm5 0h5v5h-5zm5 0h5v5h-5zm5 0h5v5h-5zm5 0h5v5h-5zm10 0h5v5h-5zm10 0h5v5h-5zm5 0h5v5h-5zm5 0h5v5h-5zm10 0h5v5h-5zm5 0h5v5h-5zm10 0h5v5h-5zm5 0h5v5h-5zm-155 5h5v5h-5zm5 0h5v5h-5zm5 0h5v5h-5zm10 0h5v5h-5zm10 0h5v5h-5zm20 0h5v5h-5zm20 0h5v5h-5zm15 0h5v5h-5zm15 0h5v5h-5zm5 0h5v5h-5zm5 0h5v5h-5zm20 0h5v5h-5zm5 0h5v5h-5zm5 0h5v5h-5zm10 0h5v5h-5zm15 0h5v5h-5zm-180 5h5v5h-5zm5 0h5v5h-5zm5 0h5v5h-5zm10 0h5v5h-5zm5 0h5v5h-5zm5 0h5v5h-5zm5 0h5v5h-5zm5 0h5v5h-5zm10 0h5v5h-5zm10 0h5v5h-5zm10 0h5v5h-5zm15 0h5v5h-5zm25 0h5v5h-5zm10 0h5v5h-5zm15 0h5v5h-5zm5 0h5v5h-5zm5 0h5v5h-5zm5 0h5v5h-5zm5 0h5v5h-5zm5 0h5v5h-5zm15 0h5v5h-5zm5 0h5v5h-5zm-140 5h5v5h-5zm5 0h5v5h-5zm5 0h5v5h-5zm20 0h5v5h-5zm5 0h5v5h-5zm5 0h5v5h-5zm10 0h5v5h-5zm15 0h5v5h-5zm15 0h5v5h-5zm10 0h5v5h-5zm5 0h5v5h-5zm5 0h5v5h-5zm20 0h5v5h-5zm5 0h5v5h-5zm10 0h5v5h-5zm5 0h5v5h-5zm-180 5h5v5h-5zm5 0h5v5h-5zm5 0h5v5h-5zm5 0h5v5h-5zm5 0h5v5h-5zm5 0h5v5h-5zm5 0h5v5h-5zm10 0h5v5h-5zm15 0h5v5h-5zm5 0h5v5h-5zm10 0h5v5h-5zm10 0h5v5h-5zm5 0h5v5h-5zm5 0h5v5h-5zm15 0h5v5h-5zm5 0h5v5h-5zm5 0h5v5h-5zm5 0h5v5h-5zm15 0h5v5h-5zm5 0h5v5h-5zm10 0h5v5h-5zm10 0h5v5h-5zm5 0h5v5h-5zm15 0h5v5h-5zm-180 5h5v5h-5zm30 0h5v5h-5zm10 0h5v5h-5zm5 0h5v5h-5zm5 0h5v5h-5zm5 0h5v5h-5zm10 0h5v5h-5zm15 0h5v5h-5zm10 0h5v5h-5zm5 0h5v5h-5zm5 0h5v5h-5zm5 0h5v5h-5zm5 0h5v5h-5zm5 0h5v5h-5zm5 0h5v5h-5zm10 0h5v5h-5zm10 0h5v5h-5zm20 0h5v5h-5zm10 0h5v5h-5zm10 0h5v5h-5zm-180 5h5v5h-5zm10 0h5v5h-5zm5 0h5v5h-5zm5 0h5v5h-5zm10 0h5v5h-5zm20 0h5v5h-5zm5 0h5v5h-5zm20 0h5v5h-5zm5 0h5v5h-5zm15 0h5v5h-5zm5 0h5v5h-5zm5 0h5v5h-5zm5 0h5v5h-5zm5 0h5v5h-5zm15 0h5v5h-5zm5 0h5v5h-5zm5 0h5v5h-5zm5 0h5v5h-5zm5 0h5v5h-5zm5 0h5v5h-5zm5 0h5v5h-5zm5 0h5v5h-5zm5 0h5v5h-5zm10 0h5v5h-5zm-180 5h5v5h-5zm10 0h5v5h-5zm5 0h5v5h-5zm5 0h5v5h-5zm10 0h5v5h-5zm20 0h5v5h-5zm10 0h5v5h-5zm5 0h5v5h-5zm5 0h5v5h-5zm20 0h5v5h-5zm5 0h5v5h-5zm5 0h5v5h-5zm10 0h5v5h-5zm20 0h5v5h-5zm5 0h5v5h-5zm5 0h5v5h-5zm15 0h5v5h-5zm20 0h5v5h-5zm-175 5h5v5h-5zm10 0h5v5h-5zm5 0h5v5h-5zm5 0h5v5h-5zm10 0h5v5h-5zm10 0h5v5h-5zm5 0h5v5h-5zm5 0h5v5h-5zm5 0h5v5h-5zm5 0h5v5h-5zm10 0h5v5h-5zm10 0h5v5h-5zm10 0h5v5h-5zm5 0h5v5h-5zm5 0h5v5h-5zm5 0h5v5h-5zm10 0h5v5h-5zm20 0h5v5h-5zm5 0h5v5h-5zm5 0h5v5h-5zm5 0h5v5h-5zm5 0h5v5h-5zm10 0h5v5h-5zm10 0h5v5h-5zm5 0h5v5h-5zm-180 5h5v5h-5zm30 0h5v5h-5zm20 0h5v5h-5zm5 0h5v5h-5zm5 0h5v5h-5zm15 0h5v5h-5zm5 0h5v5h-5zm20 0h5v5h-5zm10 0h5v5h-5zm20 0h5v5h-5zm5 0h5v5h-5zm5 0h5v5h-5zm15 0h5v5h-5zm10 0h5v5h-5zm5 0h5v5h-5zm5 0h5v5h-5zm5 0h5v5h-5zm-180 5h5v5h-5zm5 0h5v5h-5zm5 0h5v5h-5zm5 0h5v5h-5zm5 0h5v5h-5zm5 0h5v5h-5zm5 0h5v5h-5zm20 0h5v5h-5zm20 0h5v5h-5zm5 0h5v5h-5zm10 0h5v5h-5zm10 0h5v5h-5zm5 0h5v5h-5zm5 0h5v5h-5zm10 0h5v5h-5zm30 0h5v5h-5zm15 0h5v5h-5zm5 0h5v5h-5zm15 0h5v5h-5z"/>
    </symbol>

    <!-- <symbol id="qr"
      viewBox="0 0 212 212">
      <path
        d="M13 13h5v5h-5zm5 0h5v5h-5zm5 0h5v5h-5zm5 0h5v5h-5zm5 0h5v5h-5zm5 0h5v5h-5zm5 0h5v5h-5zm20
    0h5v5h-5zm5 0h5v5h-5zm5 0h5v5h-5zm5 0h5v5h-5zm10 0h5v5h-5zm5 0h5v5h-5zm10 0h5v5h-5zm25
    0h5v5h-5zm10 0h5v5h-5zm10 0h5v5h-5zm5 0h5v5h-5zm10 0h5v5h-5zm5 0h5v5h-5zm5 0h5v5h-5zm5
    0h5v5h-5zm5 0h5v5h-5zm5 0h5v5h-5zm5 0h5v5h-5zM13 18h5v5h-5zm30 0h5v5h-5zm10 0h5v5h-5zm5
    0h5v5h-5zm15 0h5v5h-5zm15 0h5v5h-5zm15 0h5v5h-5zm5 0h5v5h-5zm15 0h5v5h-5zm5 0h5v5h-5zm10
    0h5v5h-5zm5 0h5v5h-5zm20 0h5v5h-5zm30 0h5v5h-5zM13 23h5v5h-5zm10 0h5v5h-5zm5 0h5v5h-5zm5
    0h5v5h-5zm10 0h5v5h-5zm10 0h5v5h-5zm5 0h5v5h-5zm10 0h5v5h-5zm5 0h5v5h-5zm5 0h5v5h-5zm25
    0h5v5h-5zm15 0h5v5h-5zm15 0h5v5h-5zm5 0h5v5h-5zm5 0h5v5h-5zm20 0h5v5h-5zm10 0h5v5h-5zm5
    0h5v5h-5zm5 0h5v5h-5zm10 0h5v5h-5zM13 28h5v5h-5zm10 0h5v5h-5zm5 0h5v5h-5zm5 0h5v5h-5zm10
    0h5v5h-5zm10 0h5v5h-5zm5 0h5v5h-5zm10 0h5v5h-5zm5 0h5v5h-5zm15 0h5v5h-5zm5 0h5v5h-5zm5
    0h5v5h-5zm5 0h5v5h-5zm15 0h5v5h-5zm15 0h5v5h-5zm10 0h5v5h-5zm20 0h5v5h-5zm10 0h5v5h-5zm5
    0h5v5h-5zm5 0h5v5h-5zm10 0h5v5h-5zM13 33h5v5h-5zm10 0h5v5h-5zm5 0h5v5h-5zm5 0h5v5h-5zm10
    0h5v5h-5zm10 0h5v5h-5zm5 0h5v5h-5zm5 0h5v5h-5zm5 0h5v5h-5zm5 0h5v5h-5zm5 0h5v5h-5zm25
    0h5v5h-5zm5 0h5v5h-5zm5 0h5v5h-5zm10 0h5v5h-5zm10 0h5v5h-5zm5 0h5v5h-5zm15 0h5v5h-5zm10
    0h5v5h-5zm10 0h5v5h-5zm5 0h5v5h-5zm5 0h5v5h-5zm10 0h5v5h-5zM13 38h5v5h-5zm30 0h5v5h-5zm10
    0h5v5h-5zm10 0h5v5h-5zm25 0h5v5h-5zm15 0h5v5h-5zm5 0h5v5h-5zm10 0h5v5h-5zm15 0h5v5h-5zm15
    0h5v5h-5zm5 0h5v5h-5zm10 0h5v5h-5zm30 0h5v5h-5zM13 43h5v5h-5zm5 0h5v5h-5zm5 0h5v5h-5zm5
    0h5v5h-5zm5 0h5v5h-5zm5 0h5v5h-5zm5 0h5v5h-5zm10 0h5v5h-5zm10 0h5v5h-5zm10 0h5v5h-5zm10
    0h5v5h-5zm10 0h5v5h-5zm10 0h5v5h-5zm10 0h5v5h-5zm10 0h5v5h-5zm10 0h5v5h-5zm10 0h5v5h-5zm10
    0h5v5h-5zm10 0h5v5h-5zm5 0h5v5h-5zm5 0h5v5h-5zm5 0h5v5h-5zm5 0h5v5h-5zm5 0h5v5h-5zm5
    0h5v5h-5zM58 48h5v5h-5zm10 0h5v5h-5zm20 0h5v5h-5zm5 0h5v5h-5zm5 0h5v5h-5zm5 0h5v5h-5zm10
    0h5v5h-5zm20 0h5v5h-5zm10 0h5v5h-5zm5 0h5v5h-5zM23 53h5v5h-5zm15 0h5v5h-5zm5 0h5v5h-5zm5
    0h5v5h-5zm5 0h5v5h-5zm5 0h5v5h-5zm30 0h5v5h-5zm10 0h5v5h-5zm10 0h5v5h-5zm10 0h5v5h-5zm5
    0h5v5h-5zm5 0h5v5h-5zm10 0h5v5h-5zm5 0h5v5h-5zm5 0h5v5h-5zm5 0h5v5h-5zm5 0h5v5h-5zm10
    0h5v5h-5zm5 0h5v5h-5zm5 0h5v5h-5zm5 0h5v5h-5zm5 0h5v5h-5zM13 58h5v5h-5zm10 0h5v5h-5zm15
    0h5v5h-5zm10 0h5v5h-5zm15 0h5v5h-5zm10 0h5v5h-5zm20 0h5v5h-5zm5 0h5v5h-5zm5 0h5v5h-5zm15
    0h5v5h-5zm5 0h5v5h-5zm20 0h5v5h-5zm10 0h5v5h-5zm5 0h5v5h-5zm5 0h5v5h-5zm15 0h5v5h-5zm10
    0h5v5h-5zM13 63h5v5h-5zm25 0h5v5h-5zm5 0h5v5h-5zm10 0h5v5h-5zm15 0h5v5h-5zm10 0h5v5h-5zm5
    0h5v5h-5zm20 0h5v5h-5zm5 0h5v5h-5zm5 0h5v5h-5zm15 0h5v5h-5zm5 0h5v5h-5zm10 0h5v5h-5zm10
    0h5v5h-5zm10 0h5v5h-5zm30 0h5v5h-5zM23 68h5v5h-5zm5 0h5v5h-5zm5 0h5v5h-5zm20 0h5v5h-5zm5
    0h5v5h-5zm10 0h5v5h-5zm5 0h5v5h-5zm10 0h5v5h-5zm5 0h5v5h-5zm10 0h5v5h-5zm5 0h5v5h-5zm5
    0h5v5h-5zm5 0h5v5h-5zm10 0h5v5h-5zm10 0h5v5h-5zm5 0h5v5h-5zm10 0h5v5h-5zm5 0h5v5h-5zm5
    0h5v5h-5zm5 0h5v5h-5zm15 0h5v5h-5zm10 0h5v5h-5zm5 0h5v5h-5zM13 73h5v5h-5zm10 0h5v5h-5zm5
    0h5v5h-5zm15 0h5v5h-5zm5 0h5v5h-5zm15 0h5v5h-5zm5 0h5v5h-5zm5 0h5v5h-5zm10 0h5v5h-5zm15
    0h5v5h-5zm5 0h5v5h-5zm15 0h5v5h-5zm35 0h5v5h-5zm10 0h5v5h-5zm5 0h5v5h-5zm10 0h5v5h-5zm10
    0h5v5h-5zm5 0h5v5h-5zM18 78h5v5h-5zm5 0h5v5h-5zm10 0h5v5h-5zm5 0h5v5h-5zm15 0h5v5h-5zm25
    0h5v5h-5zm25 0h5v5h-5zm20 0h5v5h-5zm20 0h5v5h-5zm5 0h5v5h-5zm20 0h5v5h-5zm5 0h5v5h-5zm15
    0h5v5h-5zm5 0h5v5h-5zM18 83h5v5h-5zm10 0h5v5h-5zm15 0h5v5h-5zm15 0h5v5h-5zm10 0h5v5h-5zm5
    0h5v5h-5zm15 0h5v5h-5zm5 0h5v5h-5zm10 0h5v5h-5zm5 0h5v5h-5zm5 0h5v5h-5zm15 0h5v5h-5zm5
    0h5v5h-5zm15 0h5v5h-5zm15 0h5v5h-5zm5 0h5v5h-5zm10 0h5v5h-5zM13 88h5v5h-5zm15 0h5v5h-5zm5
    0h5v5h-5zm15 0h5v5h-5zm5 0h5v5h-5zm30 0h5v5h-5zm25 0h5v5h-5zm5 0h5v5h-5zm5 0h5v5h-5zm5
    0h5v5h-5zm5 0h5v5h-5zm15 0h5v5h-5zm5 0h5v5h-5zm5 0h5v5h-5zm10 0h5v5h-5zm5 0h5v5h-5zm10
    0h5v5h-5zm15 0h5v5h-5zM18 93h5v5h-5zm5 0h5v5h-5zm5 0h5v5h-5zm10 0h5v5h-5zm5 0h5v5h-5zm15
    0h5v5h-5zm5 0h5v5h-5zm10 0h5v5h-5zm20 0h5v5h-5zm25 0h5v5h-5zm20 0h5v5h-5zm5 0h5v5h-5zm5
    0h5v5h-5zm35 0h5v5h-5zm10 0h5v5h-5zM28 98h5v5h-5zm5 0h5v5h-5zm15 0h5v5h-5zm25 0h5v5h-5zm10
    0h5v5h-5zm5 0h5v5h-5zm10 0h5v5h-5zm10 0h5v5h-5zm5 0h5v5h-5zm15 0h5v5h-5zm5 0h5v5h-5zm20
    0h5v5h-5zm15 0h5v5h-5zm10 0h5v5h-5zm-165 5h5v5h-5zm5 0h5v5h-5zm15 0h5v5h-5zm10 0h5v5h-5zm20
    0h5v5h-5zm5 0h5v5h-5zm5 0h5v5h-5zm5 0h5v5h-5zm10 0h5v5h-5zm15 0h5v5h-5zm20 0h5v5h-5zm5
    0h5v5h-5zm5 0h5v5h-5zm5 0h5v5h-5zm15 0h5v5h-5zm10 0h5v5h-5zm5 0h5v5h-5zm10 0h5v5h-5zm15
    0h5v5h-5zm-175 5h5v5h-5zm10 0h5v5h-5zm20 0h5v5h-5zm5 0h5v5h-5zm5 0h5v5h-5zm5 0h5v5h-5zm5
    0h5v5h-5zm10 0h5v5h-5zm5 0h5v5h-5zm10 0h5v5h-5zm5 0h5v5h-5zm5 0h5v5h-5zm5 0h5v5h-5zm10
    0h5v5h-5zm5 0h5v5h-5zm5 0h5v5h-5zm5 0h5v5h-5zm15 0h5v5h-5zm5 0h5v5h-5zm10 0h5v5h-5zm5
    0h5v5h-5zm10 0h5v5h-5zm5 0h5v5h-5zm10 0h5v5h-5zm-155 5h5v5h-5zm5 0h5v5h-5zm20 0h5v5h-5zm20
    0h5v5h-5zm10 0h5v5h-5zm5 0h5v5h-5zm10 0h5v5h-5zm10 0h5v5h-5zm25 0h5v5h-5zm5 0h5v5h-5zm10
    0h5v5h-5zm5 0h5v5h-5zm5 0h5v5h-5zm5 0h5v5h-5zm15 0h5v5h-5zm-175 5h5v5h-5zm10 0h5v5h-5zm10
    0h5v5h-5zm15 0h5v5h-5zm10 0h5v5h-5zm10 0h5v5h-5zm10 0h5v5h-5zm15 0h5v5h-5zm20 0h5v5h-5zm5
    0h5v5h-5zm10 0h5v5h-5zm10 0h5v5h-5zm5 0h5v5h-5zm5 0h5v5h-5zm10 0h5v5h-5zm10 0h5v5h-5zm10
    0h5v5h-5zm-160 5h5v5h-5zm10 0h5v5h-5zm15 0h5v5h-5zm20 0h5v5h-5zm5 0h5v5h-5zm15 0h5v5h-5zm10
    0h5v5h-5zm5 0h5v5h-5zm10 0h5v5h-5zm5 0h5v5h-5zm5 0h5v5h-5zm5 0h5v5h-5zm25 0h5v5h-5zm10
    0h5v5h-5zm5 0h5v5h-5zm20 0h5v5h-5zm5 0h5v5h-5zm-175 5h5v5h-5zm5 0h5v5h-5zm10 0h5v5h-5zm10
    0h5v5h-5zm10 0h5v5h-5zm5 0h5v5h-5zm10 0h5v5h-5zm10 0h5v5h-5zm5 0h5v5h-5zm5 0h5v5h-5zm5
    0h5v5h-5zm15 0h5v5h-5zm5 0h5v5h-5zm5 0h5v5h-5zm10 0h5v5h-5zm5 0h5v5h-5zm10 0h5v5h-5zm10
    0h5v5h-5zm5 0h5v5h-5zm5 0h5v5h-5zm5 0h5v5h-5zm5 0h5v5h-5zm20 0h5v5h-5zm5 0h5v5h-5zm-180
    5h5v5h-5zm25 0h5v5h-5zm5 0h5v5h-5zm5 0h5v5h-5zm5 0h5v5h-5zm10 0h5v5h-5zm10 0h5v5h-5zm10
    0h5v5h-5zm5 0h5v5h-5zm10 0h5v5h-5zm10 0h5v5h-5zm5 0h5v5h-5zm20 0h5v5h-5zm5 0h5v5h-5zm10
    0h5v5h-5zm5 0h5v5h-5zm5 0h5v5h-5zm10 0h5v5h-5zm5 0h5v5h-5zm5 0h5v5h-5zm5 0h5v5h-5zm5 0h5v5h-5zm5
    0h5v5h-5zm-170 5h5v5h-5zm5 0h5v5h-5zm5 0h5v5h-5zm15 0h5v5h-5zm35 0h5v5h-5zm20 0h5v5h-5zm30
    0h5v5h-5zm35 0h5v5h-5zm5 0h5v5h-5zm5 0h5v5h-5zm10 0h5v5h-5zm5 0h5v5h-5zm-180 5h5v5h-5zm5
    0h5v5h-5zm10 0h5v5h-5zm5 0h5v5h-5zm10 0h5v5h-5zm10 0h5v5h-5zm5 0h5v5h-5zm10 0h5v5h-5zm5
    0h5v5h-5zm10 0h5v5h-5zm5 0h5v5h-5zm10 0h5v5h-5zm5 0h5v5h-5zm5 0h5v5h-5zm5 0h5v5h-5zm5
    0h5v5h-5zm5 0h5v5h-5zm10 0h5v5h-5zm10 0h5v5h-5zm5 0h5v5h-5zm5 0h5v5h-5zm10 0h5v5h-5zm5
    0h5v5h-5zm5 0h5v5h-5zm10 0h5v5h-5zm-160 5h5v5h-5zm5 0h5v5h-5zm5 0h5v5h-5zm5 0h5v5h-5zm10
    0h5v5h-5zm30 0h5v5h-5zm15 0h5v5h-5zm20 0h5v5h-5zm15 0h5v5h-5zm5 0h5v5h-5zm5 0h5v5h-5zm20
    0h5v5h-5zm5 0h5v5h-5zm5 0h5v5h-5zm10 0h5v5h-5zm15 0h5v5h-5zm-180 5h5v5h-5zm5 0h5v5h-5zm5
    0h5v5h-5zm10 0h5v5h-5zm10 0h5v5h-5zm5 0h5v5h-5zm5 0h5v5h-5zm10 0h5v5h-5zm10 0h5v5h-5zm10
    0h5v5h-5zm10 0h5v5h-5zm5 0h5v5h-5zm25 0h5v5h-5zm10 0h5v5h-5zm15 0h5v5h-5zm5 0h5v5h-5zm5
    0h5v5h-5zm5 0h5v5h-5zm5 0h5v5h-5zm5 0h5v5h-5zm5 0h5v5h-5zm5 0h5v5h-5zm5 0h5v5h-5zm5
    0h5v5h-5zm-140 5h5v5h-5zm10 0h5v5h-5zm20 0h5v5h-5zm5 0h5v5h-5zm5 0h5v5h-5zm25 0h5v5h-5zm10
    0h5v5h-5zm5 0h5v5h-5zm10 0h5v5h-5zm5 0h5v5h-5zm5 0h5v5h-5zm20 0h5v5h-5zm5 0h5v5h-5zm10
    0h5v5h-5zm5 0h5v5h-5zm-180 5h5v5h-5zm5 0h5v5h-5zm5 0h5v5h-5zm5 0h5v5h-5zm5 0h5v5h-5zm5
    0h5v5h-5zm5 0h5v5h-5zm10 0h5v5h-5zm10 0h5v5h-5zm5 0h5v5h-5zm5 0h5v5h-5zm10 0h5v5h-5zm10
    0h5v5h-5zm25 0h5v5h-5zm5 0h5v5h-5zm5 0h5v5h-5zm5 0h5v5h-5zm15 0h5v5h-5zm5 0h5v5h-5zm10
    0h5v5h-5zm10 0h5v5h-5zm5 0h5v5h-5zm15 0h5v5h-5zm-180 5h5v5h-5zm30 0h5v5h-5zm10 0h5v5h-5zm10
    0h5v5h-5zm5 0h5v5h-5zm10 0h5v5h-5zm30 0h5v5h-5zm5 0h5v5h-5zm5 0h5v5h-5zm5 0h5v5h-5zm10
    0h5v5h-5zm10 0h5v5h-5zm5 0h5v5h-5zm5 0h5v5h-5zm20 0h5v5h-5zm10 0h5v5h-5zm10 0h5v5h-5zm-180
    5h5v5h-5zm10 0h5v5h-5zm5 0h5v5h-5zm5 0h5v5h-5zm10 0h5v5h-5zm15 0h5v5h-5zm5 0h5v5h-5zm5
    0h5v5h-5zm25 0h5v5h-5zm5 0h5v5h-5zm5 0h5v5h-5zm5 0h5v5h-5zm10 0h5v5h-5zm5 0h5v5h-5zm5
    0h5v5h-5zm15 0h5v5h-5zm5 0h5v5h-5zm5 0h5v5h-5zm5 0h5v5h-5zm5 0h5v5h-5zm5 0h5v5h-5zm5 0h5v5h-5zm5
    0h5v5h-5zm5 0h5v5h-5zm10 0h5v5h-5zm-180 5h5v5h-5zm10 0h5v5h-5zm5 0h5v5h-5zm5 0h5v5h-5zm10
    0h5v5h-5zm35 0h5v5h-5zm5 0h5v5h-5zm20 0h5v5h-5zm10 0h5v5h-5zm5 0h5v5h-5zm5 0h5v5h-5zm20
    0h5v5h-5zm5 0h5v5h-5zm5 0h5v5h-5zm35 0h5v5h-5zm-175 5h5v5h-5zm10 0h5v5h-5zm5 0h5v5h-5zm5
    0h5v5h-5zm10 0h5v5h-5zm10 0h5v5h-5zm5 0h5v5h-5zm5 0h5v5h-5zm10 0h5v5h-5zm10 0h5v5h-5zm10
    0h5v5h-5zm10 0h5v5h-5zm5 0h5v5h-5zm15 0h5v5h-5zm5 0h5v5h-5zm25 0h5v5h-5zm5 0h5v5h-5zm5
    0h5v5h-5zm5 0h5v5h-5zm10 0h5v5h-5zm10 0h5v5h-5zm5 0h5v5h-5zm-180 5h5v5h-5zm30 0h5v5h-5zm20
    0h5v5h-5zm5 0h5v5h-5zm10 0h5v5h-5zm10 0h5v5h-5zm5 0h5v5h-5zm20 0h5v5h-5zm35 0h5v5h-5zm5
    0h5v5h-5zm15 0h5v5h-5zm10 0h5v5h-5zm5 0h5v5h-5zm5 0h5v5h-5zm5 0h5v5h-5zm-180 5h5v5h-5zm5
    0h5v5h-5zm5 0h5v5h-5zm5 0h5v5h-5zm5 0h5v5h-5zm5 0h5v5h-5zm5 0h5v5h-5zm20 0h5v5h-5zm5 0h5v5h-5zm5
    0h5v5h-5zm15 0h5v5h-5zm10 0h5v5h-5zm10 0h5v5h-5zm20 0h5v5h-5zm5 0h5v5h-5zm25 0h5v5h-5zm15
    0h5v5h-5zm5 0h5v5h-5zm15 0h5v5h-5z" />
    </symbol> -->
  </defs>
</svg>
